<?xml version="1.0" standalone="no"?>
<!DOCTYPE svg PUBLIC "-//W3C//DTD SVG 1.1//EN" "http://www.w3.org/Graphics/SVG/1.1/DTD/svg11.dtd" >
<svg xmlns="http://www.w3.org/2000/svg">
<metadata></metadata>
<defs>
<font id="helvneue_medium_for_ibmRg" horiz-adv-x="1128" >
<font-face units-per-em="2048" ascent="1462" descent="-586" />
<missing-glyph horiz-adv-x="466" />
<glyph unicode="&#xfb01;" horiz-adv-x="1089" d="M-8 885v174h174v88q0 78 16.5 136t42.5 91.5t65.5 54t79 27t89.5 6.5q115 0 164 -14v-182q-47 12 -109 12q-115 0 -115 -111v-108h199v-174h-199v-885h-233v885h-174zM748 0v1059h233v-1059h-233zM748 1241v221h233v-221h-233z" />
<glyph unicode="&#xfb02;" horiz-adv-x="1087" d="M-10 885v174h174v88q0 78 16.5 136t42.5 91.5t65.5 54t79 27t89.5 6.5q115 0 164 -14v-182q-47 12 -109 12q-115 0 -115 -111v-108h199v-174h-199v-885h-233v885h-174zM745 0v1462h234v-1462h-234z" />
<glyph horiz-adv-x="1024" />
<glyph horiz-adv-x="1024" />
<glyph horiz-adv-x="682" />
<glyph unicode="&#xd;" horiz-adv-x="0" />
<glyph unicode=" "  horiz-adv-x="466" />
<glyph unicode="&#x09;" horiz-adv-x="466" />
<glyph unicode="&#xa0;" horiz-adv-x="466" />
<glyph unicode="!" horiz-adv-x="520" d="M123 0v256h274v-256h-274zM133 1040v422h256v-422l-67 -632h-121z" />
<glyph unicode="&#x22;" horiz-adv-x="890" d="M162 885v577h209v-577h-209zM522 885v577h209v-577h-209z" />
<glyph unicode="#" horiz-adv-x="1110" d="M53 430v154h215l37 266h-192v154h213l59 430h166l-62 -430h228l59 430h166l-61 -430h176v-154h-197l-37 -266h174v-154h-194l-62 -430h-163l59 430h-225l-62 -430h-164l60 430h-193zM432 584h227l37 266h-227z" />
<glyph unicode="$" horiz-adv-x="1083" d="M8 444h234q-3 -286 262 -294v495q-54 14 -96.5 27.5t-93 35t-88 45.5t-74.5 58.5t-60.5 74.5t-38 94t-14.5 116q0 125 65.5 218t169.5 138t230 45v160h88v-160q94 0 174 -25t142 -73t97 -125.5t35 -175.5h-233q-5 107 -56 161t-159 54v-432q59 -16 105 -30.5t99 -37 t91.5 -46.5t76 -58.5t61 -74.5t38 -93t14.5 -115q0 -111 -37.5 -198.5t-104 -143t-153.5 -85.5t-190 -34v-160h-88v160q-227 5 -363.5 131t-132.5 348zM272 1112q0 -47 19 -83.5t54.5 -60.5t73 -39t85.5 -26v410q-114 0 -173 -47.5t-59 -153.5zM592 150q117 8 184.5 67 t67.5 176q0 45 -15 80.5t-37 59t-58 42.5t-67 29.5t-75 22.5v-477z" />
<glyph unicode="%" horiz-adv-x="1978" d="M135 1055q0 85 20 157t60.5 129t107.5 89t154 32t154 -32t107.5 -89t60.5 -129t20 -157q0 -86 -19 -157.5t-58.5 -129t-107 -89.5t-157.5 -32t-157.5 32t-107 89.5t-58.5 129t-19 157.5zM319 1055q0 -125 37.5 -200t118.5 -75q82 0 121 75.5t39 199.5q0 55 -7.5 101 t-25 86.5t-50 63.5t-77.5 23q-156 0 -156 -274zM500 -49l796 1532h156l-793 -1532h-159zM1163 379q0 85 20 157t60.5 129t107.5 89t154 32t154 -32t107.5 -89t60.5 -129t20 -157q0 -86 -19 -157.5t-58.5 -129t-107 -89.5t-157.5 -32t-157.5 32t-107 89.5t-58.5 129 t-19 157.5zM1348 379q0 -125 37 -200t118 -75q82 0 121 75.5t39 199.5q0 55 -7.5 101t-25 86.5t-50 63.5t-77.5 23q-155 0 -155 -274z" />
<glyph unicode="&#x26;" horiz-adv-x="1310" d="M55 406q0 74 27.5 140t78 117.5t105.5 90.5t125 75q-37 48 -56.5 75.5t-44 70.5t-35.5 85.5t-11 88.5q0 155 103 251.5t255 96.5q97 0 178 -37t134 -118.5t53 -194.5q0 -122 -73.5 -214.5t-191.5 -156.5l228 -274q35 104 45 196h205q-23 -213 -115 -358l281 -340h-287 l-133 164q-82 -100 -181.5 -146.5t-228.5 -46.5q-206 0 -333.5 117t-127.5 318zM289 401q0 -116 65 -180.5t170 -64.5q46 0 86 11t65 24.5t51.5 38.5t37 38.5t29.5 39.5q5 8 8 11l-287 357q-12 -7 -45.5 -26t-52 -30.5t-46.5 -35t-43 -47t-26.5 -59t-11.5 -77.5zM453 1161 q0 -34 15.5 -71.5t27.5 -55.5t49 -64t41 -52q41 28 65.5 47t52.5 48.5t41 64.5t13 77q0 73 -41.5 120.5t-108.5 47.5t-111 -45t-44 -117z" />
<glyph unicode="'" horiz-adv-x="563" d="M178 885v577h209v-577h-209z" />
<glyph unicode="(" horiz-adv-x="552" d="M90 553q0 491 295 944h190q-251 -451 -251 -944q0 -516 251 -944h-190q-67 109 -116 206t-92 214.5t-65 249t-22 274.5z" />
<glyph unicode=")" horiz-adv-x="555" d="M-23 -391q252 450 252 942q0 514 -252 946h191q140 -223 217.5 -449t77.5 -497q0 -492 -295 -942h-191z" />
<glyph unicode="*" horiz-adv-x="749" d="M33 1171l45 134l225 -88v245h139v-245l224 88l49 -134l-234 -77l144 -193l-109 -80l-145 201l-140 -201l-114 80l143 193z" />
<glyph unicode="+" horiz-adv-x="1200" d="M84 414v209h412v413h209v-413h411v-209h-411v-414h-209v414h-412z" />
<glyph unicode="," horiz-adv-x="448" d="M82 0v276h285v-276q-1 -126 -76.5 -212.5t-200.5 -111.5v125q65 17 100 73t33 126h-141z" />
<glyph unicode="-" horiz-adv-x="794" d="M98 446v222h596v-222h-596z" />
<glyph unicode="." horiz-adv-x="448" d="M82 0v276h285v-276h-285z" />
<glyph unicode="/" horiz-adv-x="737" d="M-37 -35l588 1532h223l-588 -1532h-223z" />
<glyph unicode="0" horiz-adv-x="1153" d="M82 717q0 75 5.5 144.5t21 145.5t39 140.5t62.5 123.5t89.5 100.5t121.5 66t157 24.5t157 -24.5t121.5 -66t89 -100.5t62.5 -123.5t39 -140.5t20.5 -145.5t5.5 -144.5t-5.5 -144.5t-20.5 -145.5t-39 -140.5t-62.5 -124t-89 -101t-121.5 -66t-157 -24.5q-100 0 -179.5 32 t-132.5 89.5t-90.5 128.5t-57 158.5t-28 168.5t-8.5 169zM315 717q0 -551 263 -551q262 0 262 551t-262 551q-263 0 -263 -551z" />
<glyph unicode="1" horiz-adv-x="849" d="M86 1012v184q76 0 143.5 13t125.5 40.5t97.5 74.5t51.5 110h190v-1434h-256v1012h-352z" />
<glyph unicode="2" horiz-adv-x="1093" d="M55 0q3 333 316 543q34 25 95 66t99.5 68t87.5 68.5t78 78.5t50 86.5t22 103.5q0 34 -5.5 66t-21.5 67.5t-42 61t-70.5 42.5t-102.5 17q-67 0 -115 -27t-75 -77.5t-40.5 -112t-15.5 -142.5h-233q0 160 56 284t168.5 196.5t268.5 72.5q101 0 182 -28.5t132 -73.5t85 -104 t48 -117t14 -117q0 -94 -34.5 -175.5t-91 -142t-125.5 -114t-141 -99.5t-134.5 -88.5t-110 -92.5t-63.5 -101h698v-209h-979z" />
<glyph unicode="3" horiz-adv-x="1157" d="M78 471h233q-5 -135 66.5 -220t204.5 -85q121 0 197.5 68t76.5 188q0 65 -22 111.5t-56 72.5t-86 40.5t-100.5 18t-110.5 1.5v174q62 -2 116 8.5t101 35.5t74 71.5t27 109.5q0 91 -62.5 147t-161.5 56q-115 0 -178.5 -87.5t-58.5 -205.5h-234q8 214 136.5 350.5 t339.5 136.5q85 0 165 -24.5t144.5 -71t103.5 -121t39 -166.5q0 -112 -50.5 -191.5t-152.5 -115.5v-4q122 -25 191.5 -121t69.5 -237q0 -131 -70.5 -232.5t-185.5 -154t-252 -52.5q-243 0 -371 134t-133 366z" />
<glyph unicode="4" horiz-adv-x="1112" d="M45 340v231l614 863h222v-910h184v-184h-184v-340h-222v340h-614zM225 524h434v631h-4z" />
<glyph unicode="5" horiz-adv-x="1120" d="M55 408h234q10 -117 79 -179.5t185 -62.5q140 0 203 86t63 229q0 128 -69.5 213.5t-202.5 85.5q-181 0 -232 -131h-233l154 785h741v-209h-567l-74 -365l4 -4q46 52 117.5 80.5t146.5 28.5q210 0 329.5 -134t119.5 -346q0 -71 -17.5 -141.5t-56.5 -138t-95 -119.5 t-140.5 -83.5t-186.5 -31.5q-215 0 -355 114.5t-147 322.5z" />
<glyph unicode="6" horiz-adv-x="1150" d="M84 721q0 107 17 208.5t58 199.5t101 171t154.5 117.5t210.5 44.5q112 0 209 -48.5t157.5 -139t65.5 -203.5h-234q-8 89 -63 143t-146 54q-42 0 -77.5 -11.5t-61.5 -28t-48 -47t-37 -56t-27 -67.5t-18.5 -70t-13 -75t-8.5 -70t-6 -67l5 -4q46 84 127.5 127t181.5 43 q139 0 243 -64t156.5 -172t52.5 -245q0 -212 -132 -351t-345 -139q-123 0 -215.5 38.5t-150 104t-93.5 163.5t-49.5 204.5t-13.5 239.5zM340 465q0 -80 28.5 -146.5t88 -109.5t141.5 -43q121 0 186.5 87.5t65.5 211.5t-65.5 208.5t-186.5 84.5q-122 0 -190 -84t-68 -209z " />
<glyph unicode="7" horiz-adv-x="974" d="M-4 1225v209h981v-195q-237 -267 -372 -567t-163 -672h-256q24 329 172 645t381 580h-743z" />
<glyph unicode="8" horiz-adv-x="1165" d="M78 422q0 134 70 226.5t192 123.5v4q-98 37 -150.5 113.5t-52.5 181.5q0 185 116.5 288t330.5 103t330 -102.5t116 -288.5q0 -105 -52.5 -181.5t-150.5 -113.5v-4q122 -31 192.5 -123.5t70.5 -226.5q0 -207 -141.5 -329t-364.5 -122t-364.5 122t-141.5 329zM311 422 q0 -124 76.5 -195t196.5 -71t196 71t76 195q0 116 -76 184t-196 68t-196.5 -68t-76.5 -184zM358 1059q0 -100 62.5 -155.5t163.5 -55.5t163 55.5t62 155.5q0 102 -64 160.5t-161 58.5q-98 0 -162 -58.5t-64 -160.5z" />
<glyph unicode="9" horiz-adv-x="1150" d="M66 973q0 215 132 352t361 137q118 0 207 -38.5t145.5 -104t91.5 -163t48.5 -204.5t13.5 -239q0 -89 -12.5 -174t-38 -170t-69 -155.5t-101.5 -125.5t-140 -86t-180 -31q-112 0 -209 48.5t-157.5 139t-65.5 203.5h234q8 -89 63 -142.5t146 -53.5q41 0 76.5 11.5t61.5 28 t48 46.5t36.5 56t27 67.5t19 70t13 74.5t8.5 70t6 67l-4 5q-47 -84 -128 -128.5t-181 -44.5q-203 0 -327.5 132.5t-124.5 351.5zM299 975q0 -81 26 -147.5t84.5 -110t139.5 -43.5q124 0 192 87t68 214q0 123 -68 208t-192 85q-121 0 -185.5 -84t-64.5 -209z" />
<glyph unicode=":" horiz-adv-x="555" d="M135 0v276h285v-276h-285zM135 760v276h285v-276h-285z" />
<glyph unicode=";" horiz-adv-x="552" d="M133 0v276h285v-276q-1 -126 -76.5 -212.5t-200.5 -111.5v125q65 17 100 73t33 126h-141zM133 760v276h285v-276h-285z" />
<glyph unicode="&#x3c;" horiz-adv-x="1200" d="M80 444v148l1040 461v-209l-766 -326l766 -325v-209z" />
<glyph unicode="=" horiz-adv-x="1198" d="M84 207v209h1032v-209h-1032zM84 621v208h1032v-208h-1032z" />
<glyph unicode="&#x3e;" horiz-adv-x="1200" d="M80 -16v209l766 325l-766 326v209l1040 -461v-148z" />
<glyph unicode="?" horiz-adv-x="1071" d="M68 997q0 227 132.5 363.5t358.5 136.5q194 0 320.5 -111t126.5 -303q0 -53 -10.5 -98t-22 -73t-38.5 -61t-42 -47t-50 -45q-12 -11 -18 -16q-42 -36 -60 -52t-47 -50t-41 -63.5t-22 -76.5t-10 -104h-221q0 170 36 256t124 160q10 9 35.5 30.5t35.5 31t29.5 29.5t28 35 t19 37t14.5 46t4 53q0 59 -21 105t-53 71.5t-65 38.5t-62 13q-124 0 -186 -81t-62 -225h-233zM393 0v256h275v-256h-275z" />
<glyph unicode="@" horiz-adv-x="1570" d="M66 758q0 152 60.5 289.5t162 235.5t239.5 156t289 58q182 0 338.5 -75.5t252 -214.5t95.5 -310q0 -117 -34.5 -220t-88 -172.5t-119 -120t-127.5 -74t-114 -23.5q-50 0 -83.5 30.5t-37.5 88.5h-4q-44 -51 -105 -84t-124 -33q-127 0 -213 94.5t-86 226.5t55 252.5 t159.5 199.5t233.5 79q156 0 229 -148l37 117h144l-148 -539q-18 -59 -18 -94q0 -47 39 -47q64 0 125 57t101 160.5t40 224.5q0 148 -74.5 261.5t-198 172t-274.5 58.5q-170 0 -305.5 -82t-209 -222t-73.5 -310q0 -147 46.5 -270t127.5 -206.5t192.5 -129.5t240.5 -46 q135 0 255 53t205 150h144q-98 -159 -260 -247.5t-353 -88.5q-157 0 -297 59t-242 162t-162 251.5t-60 320.5zM541 629q0 -83 45 -135t119 -52q77 0 143.5 60.5t101.5 144t35 160.5q0 73 -48 126.5t-114 53.5q-81 0 -147.5 -58t-100.5 -139.5t-34 -160.5z" />
<glyph unicode="A" horiz-adv-x="1363" d="M-16 0l561 1462h272l563 -1462h-274l-137 387h-584l-137 -387h-264zM455 582h446l-219 628h-6z" />
<glyph unicode="B" horiz-adv-x="1394" d="M125 0v1462h711q202 0 318 -92t116 -270q0 -109 -54 -189t-155 -123v-4q134 -29 204 -127t70 -249q0 -88 -31.5 -160.5t-95 -129t-168.5 -87.5t-243 -31h-672zM381 209h453q117 0 181 60.5t64 170.5q0 109 -64 167.5t-181 58.5h-453v-457zM381 850h418q95 0 155 53.5 t60 149.5q0 107 -53.5 153.5t-161.5 46.5h-418v-403z" />
<glyph unicode="C" horiz-adv-x="1429" d="M61 731q0 156 49 295t137.5 244t222 166t292.5 61q166 0 300 -58.5t219 -173t101 -268.5h-256q-74 291 -364 291q-91 0 -166 -31t-126 -84t-86 -124.5t-51 -151.5t-16 -166t16 -166t51 -151.5t86 -124.5t126 -84t166 -31q164 0 259.5 106.5t113.5 276.5h249 q-17 -264 -187.5 -428t-434.5 -164q-212 0 -373.5 104.5t-244.5 277.5t-83 384z" />
<glyph unicode="D" horiz-adv-x="1441" d="M127 0v1462h606q164 0 290 -57t202.5 -158t114.5 -231t38 -285t-38 -285t-114.5 -231t-202.5 -158t-290 -57h-606zM383 209h252q117 0 204 26.5t140.5 71.5t86 113.5t44.5 142t12 168.5t-12 168.5t-44.5 142t-86 113.5t-140.5 71.5t-204 26.5h-252v-1044z" />
<glyph unicode="E" horiz-adv-x="1267" d="M127 0v1462h1053v-221h-797v-383h737v-209h-737v-428h811v-221h-1067z" />
<glyph unicode="F" horiz-adv-x="1173" d="M127 0v1462h1010v-221h-754v-383h661v-209h-661v-649h-256z" />
<glyph unicode="G" horiz-adv-x="1515" d="M59 731q0 156 49 295t137.5 244t222 166t292.5 61q161 0 294 -55t223 -170t109 -275h-249q-20 138 -125.5 214.5t-251.5 76.5q-91 0 -166 -31t-126 -84t-86 -124.5t-51 -151.5t-16 -166t16 -166t51 -151.5t86 -124.5t126 -84t166 -31h14q184 0 285 104q105 107 110 297 h-389v195h623v-770h-164l-39 172q-101 -114 -202 -160.5t-238 -46.5q-212 0 -373.5 104.5t-244.5 277.5t-83 384z" />
<glyph unicode="H" horiz-adv-x="1429" d="M127 0v1462h256v-581h666v581h256v-1462h-256v659h-666v-659h-256z" />
<glyph unicode="I" horiz-adv-x="516" d="M129 0v1462h256v-1462h-256z" />
<glyph unicode="J" horiz-adv-x="1073" d="M29 434v78h256v-76q0 -132 44 -197t156 -65q118 0 161.5 68.5t43.5 214.5v1005h256v-991q0 -59 -4.5 -108t-17.5 -103t-35 -95.5t-58.5 -80t-86 -64t-120.5 -40.5t-159 -15q-221 0 -328.5 128t-107.5 341z" />
<glyph unicode="K" horiz-adv-x="1376" d="M127 0v1462h256v-665l651 665h316l-584 -583l625 -879h-320l-479 698l-209 -206v-492h-256z" />
<glyph unicode="L" horiz-adv-x="1173" d="M127 0v1462h256v-1241h743v-221h-999z" />
<glyph unicode="M" horiz-adv-x="1767" d="M125 0v1462h360l404 -1145h4l393 1145h356v-1462h-243v1128h-4l-406 -1128h-211l-405 1128h-4v-1128h-244z" />
<glyph unicode="N" horiz-adv-x="1435" d="M125 0v1462h270l668 -1077h4v1077h244v-1462h-271l-665 1075h-6v-1075h-244z" />
<glyph unicode="O" horiz-adv-x="1515" d="M57 731q0 156 49 295t137.5 244t222 166t292.5 61t292.5 -61t221.5 -166t137 -244t49 -295q0 -126 -30.5 -241t-90.5 -210.5t-143.5 -166t-195.5 -109.5t-240 -39q-212 0 -373.5 104.5t-244.5 277.5t-83 384zM313 731q0 -86 16 -166t51 -151.5t86 -124.5t126 -84t166 -31 q113 0 200.5 47t139.5 127t78 177t26 206t-26 206t-78 177t-139.5 127t-200.5 47q-91 0 -166 -31t-126 -84t-86 -124.5t-51 -151.5t-16 -166z" />
<glyph unicode="P" horiz-adv-x="1312" d="M127 0v1462h645q120 0 212 -30t144.5 -76t86 -109t44.5 -119.5t11 -117.5t-11 -117t-44.5 -119t-86 -108t-144.5 -75t-212 -30h-389v-561h-256zM383 770h375q46 0 89 12.5t81.5 39t62 75.5t23.5 115q0 70 -20 119t-56 74.5t-79 36.5t-97 11h-379v-483z" />
<glyph unicode="Q" horiz-adv-x="1515" d="M57 731q0 156 49 295t137.5 244t222 166t292.5 61t292.5 -61t221.5 -166t137 -244t49 -295q0 -161 -51.5 -313.5t-155.5 -247.5l189 -164l-125 -139l-213 186q-152 -88 -344 -88q-212 0 -373.5 104.5t-244.5 277.5t-83 384zM313 731q0 -86 16 -166t51 -151.5t86 -124.5 t126 -84t166 -31q93 0 164 35l-148 129l123 141l178 -155q127 156 127 407q0 109 -26 206t-78 177t-139.5 127t-200.5 47q-91 0 -166 -31t-126 -84t-86 -124.5t-51 -151.5t-16 -166z" />
<glyph unicode="R" horiz-adv-x="1406" d="M127 0v1462h698q238 0 361 -103t123 -292q0 -79 -21.5 -144.5t-49 -102.5t-66 -66t-60.5 -38.5t-45 -17.5v-4q37 -4 71.5 -21t69 -50.5t55.5 -95t21 -142.5q0 -135 20 -238.5t60 -146.5h-274q-18 29 -27 70t-10.5 68.5t-1.5 76.5q0 106 -12.5 174.5t-44.5 118.5t-89 72 t-145 22h-377v-602h-256zM383 797h420q250 0 250 233q0 55 -14 95.5t-36.5 64.5t-57 38.5t-69 19.5t-77.5 5h-416v-456z" />
<glyph unicode="S" horiz-adv-x="1273" d="M39 487h256q0 -81 29 -142.5t80 -98t117 -54.5t145 -18q157 0 233 64.5t76 156.5q0 133 -121 180q-47 18 -104.5 34t-161 42.5t-170.5 44.5q-324 85 -324 371q0 106 46 190.5t123 135.5t170.5 77.5t195.5 26.5q115 0 216 -30.5t178 -88t122 -147.5t45 -201h-256 q-19 258 -316 258q-48 0 -92.5 -9.5t-85.5 -30t-65.5 -59.5t-24.5 -91q0 -137 174 -189q376 -98 422 -112q137 -42 211 -146t74 -227q0 -118 -49.5 -209t-134 -144t-185 -79.5t-213.5 -26.5q-128 0 -236 31.5t-191.5 93.5t-132 163.5t-50.5 233.5z" />
<glyph unicode="T" horiz-adv-x="1251" d="M33 1241v221h1184v-221h-465v-1241h-256v1241h-463z" />
<glyph unicode="U" horiz-adv-x="1435" d="M117 526v936h256v-852q0 -52 1.5 -86.5t8.5 -83t20.5 -81t39 -68t61 -56.5t90 -35t123.5 -14t123.5 14t90 35t61 56.5t39 68t20.5 81t8.5 83t1.5 86.5v852h256v-936q0 -274 -161 -417.5t-439 -143.5t-439 143.5t-161 417.5z" />
<glyph unicode="V" horiz-adv-x="1251" d="M-10 1462h266l367 -1157h4l374 1157h261l-500 -1462h-285z" />
<glyph unicode="W" horiz-adv-x="1886" d="M-12 1462h260l264 -1118h4l295 1118h262l287 -1118h4l272 1118h260l-403 -1462h-260l-293 1118h-4l-299 -1118h-264z" />
<glyph unicode="X" horiz-adv-x="1302" d="M-18 0l518 758l-484 704h306l331 -516l346 516h287l-483 -704l518 -758h-311l-365 559l-371 -559h-292z" />
<glyph unicode="Y" horiz-adv-x="1280" d="M-37 1462h297l387 -655l381 655h287l-547 -889v-573h-256v573z" />
<glyph unicode="Z" horiz-adv-x="1288" d="M45 0v209l852 1032h-786v221h1112v-194l-852 -1047h872v-221h-1198z" />
<glyph unicode="[" horiz-adv-x="577" d="M129 -391v1888h457v-184h-236v-1520h236v-184h-457z" />
<glyph unicode="\" horiz-adv-x="737" d="M-37 1497h223l588 -1532h-223z" />
<glyph unicode="]" horiz-adv-x="579" d="M-8 -207h235v1520h-235v184h457v-1888h-457v184z" />
<glyph unicode="^" horiz-adv-x="1083" d="M98 686l369 748h147l369 -748h-209l-233 506l-234 -506h-209z" />
<glyph unicode="_" horiz-adv-x="995" d="M-14 -154h1024v-102h-1024v102z" />
<glyph unicode="`" horiz-adv-x="442" d="M-100 1499h274l186 -293h-170z" />
<glyph unicode="a" horiz-adv-x="1130" d="M51 281q0 55 13 100t33 76.5t53 56.5t65 40t77.5 27t81.5 17.5t85 11.5q34 7 81.5 13t77 9.5t63 12.5t52 21.5t31 36t12.5 57.5q0 143 -219 143q-102 0 -164 -42t-69 -126h-234q6 98 48 169t111 109.5t148.5 56t173.5 17.5q81 0 154 -17t135 -52t98.5 -96.5t36.5 -141.5 v-544q0 -44 12 -62t44 -18h24q9 0 33 4v-162q-79 -27 -147 -27q-157 0 -181 129q-65 -64 -165 -96.5t-201 -32.5q-72 0 -137 19.5t-115.5 57t-80.5 98t-30 135.5zM285 291q0 -38 21.5 -65.5t56 -42t69 -21t68.5 -6.5q41 0 84.5 11t84.5 33.5t67 63t26 92.5v174 q-32 -21 -75.5 -32t-114.5 -18.5t-97 -12.5q-88 -14 -139 -53t-51 -123z" />
<glyph unicode="b" horiz-adv-x="1216" d="M100 0v1462h234v-540h4q49 75 136 120t179 45q122 0 218 -44t156 -121t91 -178.5t31 -219.5q0 -110 -28.5 -208t-83 -176t-143.5 -123.5t-202 -45.5q-278 0 -366 174h-4v-145h-222zM326 528q0 -164 79.5 -268t217.5 -104q77 0 135 31.5t91.5 86t49.5 118.5t16 136 q0 73 -19 139t-54.5 119.5t-92 85t-126.5 31.5q-145 0 -221 -100.5t-76 -274.5z" />
<glyph unicode="c" horiz-adv-x="1105" d="M61 518q0 121 33.5 223.5t97 180t164.5 121.5t228 44q195 0 327.5 -97.5t149.5 -284.5h-234q-13 97 -77 147.5t-164 50.5q-40 0 -77 -9t-77.5 -35t-69.5 -67t-48 -111.5t-19 -162.5q0 -69 15.5 -131.5t47.5 -115t88 -84t129 -31.5q103 0 169 63t83 178h234 q-32 -207 -157 -316.5t-329 -109.5q-162 0 -279.5 72.5t-176 195t-58.5 279.5z" />
<glyph unicode="d" horiz-adv-x="1216" d="M68 537q0 112 25.5 204.5t69 155.5t102.5 106.5t124.5 63.5t136.5 20q107 0 204.5 -41t148.5 -124h4v540h233v-1462h-221v143h-4q-45 -87 -133 -129.5t-195 -42.5q-122 0 -217.5 43.5t-155.5 121t-91 179t-31 222.5zM301 518q0 -95 30 -175t98 -133.5t165 -53.5 q60 0 110 21.5t84 57.5t57.5 84t34.5 101t11 110q0 176 -78.5 274.5t-214.5 98.5q-64 0 -115 -22t-84.5 -59t-56 -87.5t-32 -104t-9.5 -112.5z" />
<glyph unicode="e" d="M53 528q0 113 36 214.5t101 178t162.5 121.5t212.5 45q122 0 224 -52t166.5 -138t94.5 -198q20 -75 20 -152q0 -39 -5 -78h-778q0 -86 29.5 -155t95 -113.5t159.5 -44.5q102 0 164.5 43.5t93.5 132.5h222q-36 -169 -169.5 -265t-310.5 -96q-245 0 -381.5 152.5 t-136.5 404.5zM287 623h544q-8 117 -79.5 198.5t-186.5 81.5q-120 0 -196.5 -79.5t-81.5 -200.5z" />
<glyph unicode="f" horiz-adv-x="606" d="M-8 885v174h174v88q0 78 16.5 136t42.5 91.5t65.5 54t79 27t89.5 6.5q115 0 164 -14v-182q-47 12 -109 12q-115 0 -115 -111v-108h199v-174h-199v-885h-233v885h-174z" />
<glyph unicode="g" horiz-adv-x="1198" d="M68 557q0 144 56 263.5t166.5 193t256.5 73.5q105 0 187.5 -43.5t125.5 -130.5h4v146h234v-1004q0 -237 -133 -356t-387 -119q-85 0 -161.5 17.5t-145.5 54t-114 103t-53 155.5h234q20 -91 85 -123.5t169 -32.5q272 0 272 271v161h-4q-49 -87 -133.5 -136.5t-183.5 -49.5 q-122 0 -215 44t-149 121.5t-83.5 176t-27.5 215.5zM301 535q0 -91 28 -168t93 -130t158 -53q75 0 131.5 31.5t88.5 85.5t48 117.5t16 134.5t-16.5 132t-49 111t-89 78.5t-129.5 28.5q-74 0 -130 -32t-87.5 -86.5t-46.5 -117t-15 -132.5z" />
<glyph unicode="h" d="M100 0v1462h234v-542h4q44 74 129.5 120.5t187.5 46.5q177 0 276 -91.5t99 -268.5v-727h-233v666q-5 125 -54 181t-153 56q-115 0 -185.5 -79.5t-70.5 -198.5v-625h-234z" />
<glyph unicode="i" horiz-adv-x="446" d="M106 0v1059h234v-1059h-234zM106 1241v221h234v-221h-234z" />
<glyph unicode="j" horiz-adv-x="468" d="M-59 -227q47 -9 79 -9q59 0 77 35t18 121v1139h233v-1149q0 -164 -71.5 -247t-231.5 -83q-63 0 -104 8v185zM115 1241v221h233v-221h-233z" />
<glyph unicode="k" horiz-adv-x="1081" d="M119 0v1462h233v-831l422 428h287l-406 -389l445 -670h-285l-323 514l-140 -135v-379h-233z" />
<glyph unicode="l" horiz-adv-x="446" d="M106 0v1462h234v-1462h-234z" />
<glyph unicode="m" horiz-adv-x="1746" d="M106 0v1059h222v-148h6q60 87 133 131.5t192 44.5q102 0 182.5 -44.5t114.5 -131.5q64 87 142.5 131.5t189.5 44.5q173 0 263.5 -85t90.5 -271v-731h-233v618q0 42 -1 69.5t-5 60.5t-12 54t-22 42t-34.5 32.5t-50 19t-67.5 7.5q-226 0 -226 -282v-621h-233v680 q0 114 -42.5 168.5t-144.5 54.5q-95 0 -163 -74.5t-68 -199.5v-629h-234z" />
<glyph unicode="n" d="M100 0v1059h222v-156l4 -4q55 89 140.5 138.5t188.5 49.5q177 0 276 -91.5t99 -268.5v-727h-233v666q-5 125 -54 181t-153 56q-115 0 -185.5 -79.5t-70.5 -198.5v-625h-234z" />
<glyph unicode="o" horiz-adv-x="1183" d="M57 530q0 247 143.5 402t391.5 155t391 -155t143 -402q0 -164 -62 -289.5t-184 -197.5t-288 -72q-249 0 -392 155t-143 404zM291 530q0 -56 11 -109.5t35 -101.5t58.5 -84t85 -57.5t111.5 -21.5t111.5 21.5t85 57.5t58.5 84t35 101.5t11 109.5q0 71 -18 135.5 t-53.5 118.5t-95 86.5t-134.5 32.5t-134.5 -32.5t-95 -86.5t-53.5 -118.5t-18 -135.5z" />
<glyph unicode="p" horiz-adv-x="1202" d="M100 -391v1450h222v-144h4q47 88 132.5 130t194.5 42q122 0 218 -44t156 -121t91 -178.5t31 -219.5q0 -110 -28.5 -208t-83 -176t-143.5 -123.5t-202 -45.5q-109 0 -206 41.5t-148 124.5h-4v-528h-234zM326 528q0 -164 79.5 -268t217.5 -104q77 0 135 31.5t91.5 86 t49.5 118.5t16 136q0 73 -19 139t-54.5 119.5t-92 85t-126.5 31.5q-145 0 -221 -100.5t-76 -274.5z" />
<glyph unicode="q" horiz-adv-x="1214" d="M68 524q0 118 31 219.5t90.5 178.5t155.5 121t218 44q109 0 195 -42t133 -130h4v144h221v-1450h-233v528h-4q-56 -84 -150 -125t-205 -41q-91 0 -166.5 30t-128.5 82t-89.5 122.5t-54 151t-17.5 167.5zM301 528q0 -57 10 -109.5t32 -101t55.5 -84t83.5 -56.5t112 -21 q148 0 222.5 100t74.5 272q0 177 -76 276t-221 99q-92 0 -160.5 -55t-100.5 -138.5t-32 -181.5z" />
<glyph unicode="r" horiz-adv-x="710" d="M100 0v1059h219v-205h5q21 88 113.5 160.5t195.5 72.5q19 0 88 -6v-225q-55 10 -100 10q-124 0 -205.5 -95.5t-81.5 -266.5v-504h-234z" />
<glyph unicode="s" horiz-adv-x="1048" d="M59 340h234q19 -184 239 -184q40 0 76.5 5t76.5 19q41 12 63 42q21 27 20 66v7q-1 26 -11 46.5t-31.5 36t-42 26t-57 20.5t-61.5 16t-71.5 15.5t-71.5 15.5q-59 13 -102.5 26.5t-91 38t-77.5 56t-49.5 81t-19.5 111.5q0 67 27.5 120t72 86.5t104 56t118.5 31.5t120 9 q85 0 157.5 -18t134.5 -55t101.5 -101.5t49.5 -150.5h-244q-16 79 -72 110t-143 31q-30 0 -59.5 -4.5t-61.5 -15t-52 -33.5t-20 -55q0 -19 5.5 -35t18.5 -29t26.5 -23t36.5 -19t42 -15.5t50 -13.5t52 -11.5t56.5 -11.5t56.5 -12q59 -13 102 -27t91 -39t78.5 -56t50.5 -79.5 t20 -108.5q0 -90 -42.5 -159t-113 -108t-150.5 -58t-167 -19q-209 0 -337 94t-132 275z" />
<glyph unicode="t" horiz-adv-x="675" d="M0 885v174h176v317h234v-317h211v-174h-211v-566q0 -81 20 -113t92 -32q66 0 99 8v-180q-102 -12 -152 -12q-91 0 -148.5 16.5t-88 53.5t-42.5 82.5t-14 117.5v625h-176z" />
<glyph unicode="u" d="M100 387v672h234v-649q0 -135 51 -194.5t152 -59.5q260 0 260 288v615h233v-1059h-229v147h-4q-42 -78 -127 -127t-174 -49q-207 0 -301.5 102t-94.5 314z" />
<glyph unicode="v" horiz-adv-x="1038" d="M6 1059h254l268 -813h4l259 813h241l-379 -1059h-262z" />
<glyph unicode="w" horiz-adv-x="1552" d="M6 1059h248l207 -791h4l199 791h235l191 -791h4l215 791h237l-332 -1059h-239l-197 786h-4l-194 -786h-246z" />
<glyph unicode="x" horiz-adv-x="1054" d="M-14 0l399 557l-367 502h283l221 -326l232 326h270l-360 -490l405 -569h-281l-268 391l-260 -391h-274z" />
<glyph unicode="y" horiz-adv-x="1060" d="M6 1059h256l277 -791h4l268 791h244l-412 -1116q-58 -145 -81 -188q-66 -120 -170 -156q-54 -19 -124 -19q-82 0 -162 12v197q91 -14 111 -14q74 0 107.5 35.5t56.5 111.5l27 82z" />
<glyph unicode="z" horiz-adv-x="985" d="M29 0v164l585 710h-544v185h860v-164l-606 -711h637v-184h-932z" />
<glyph unicode="{" horiz-adv-x="688" d="M33 461v184q25 0 54 7t62 22t54.5 47t21.5 74v422q0 55 19 103t48 79.5t65 54t69 33t61 10.5h187v-184h-113q-37 0 -61.5 -13t-35.5 -37t-14.5 -45t-3.5 -49v-399q0 -47 -16.5 -84.5t-40 -60.5t-54.5 -39t-55.5 -22.5t-46.5 -8.5v-4q213 -20 213 -227v-387q0 -28 3.5 -49 t14.5 -45t35.5 -37t61.5 -13h113v-184h-187q-28 0 -61 10.5t-69 33t-65 54t-48 79.5t-19 103v406q0 47 -21.5 81.5t-54.5 51.5t-62.5 25t-53.5 8z" />
<glyph unicode="|" horiz-adv-x="454" d="M123 -438v2048h209v-2048h-209z" />
<glyph unicode="}" horiz-adv-x="690" d="M14 -207h113q37 0 61.5 13t35.5 37t14.5 45t3.5 49v399q0 48 16.5 86t39.5 59.5t55.5 37.5t55 22t46.5 10v4q-213 20 -213 227v387q0 28 -3.5 49t-14.5 45t-35.5 37t-61.5 13h-113v184h187q28 0 61 -10.5t69 -33t65 -54t48 -79.5t19 -103v-406q0 -47 21 -81.5t53.5 -51.5 t62 -25t55.5 -8v-184q-20 0 -43 -4t-50 -14.5t-48.5 -27t-36 -43.5t-14.5 -61v-422q0 -55 -19 -103t-48 -79.5t-65 -54t-69 -33t-61 -10.5h-187v184z" />
<glyph unicode="~" horiz-adv-x="1196" d="M125 516q86 176 256 176q78 0 227 -65q14 -6 44.5 -20t47.5 -21t40.5 -16t42 -13t34.5 -4q36 0 70.5 22t52.5 43t48 62q3 4 5 6.5t4 5.5l74 -172q-26 -39 -48 -65.5t-53.5 -54.5t-70.5 -42t-84 -14q-90 0 -209 68q-120 71 -235 71q-60 0 -100 -38.5t-72 -100.5z" />
<glyph unicode="&#xa1;" horiz-adv-x="520" d="M123 831v256h274v-256h-274zM133 43l68 637h121l67 -637v-418h-256v418z" />
<glyph unicode="&#xa2;" horiz-adv-x="1089" d="M51 518q0 256 132 412.5t341 156.5v185h88v-185q174 0 299.5 -104t137.5 -278h-234q-11 88 -66.5 143t-136.5 55v-747q187 34 211 241h234q-36 -201 -148 -313.5t-297 -112.5v-184h-88v184q-108 0 -198.5 44t-150 119t-92 174t-32.5 210zM285 518q0 -64 13.5 -122.5 t41 -109.5t75 -85.5t109.5 -44.5v747q-64 -6 -112.5 -42.5t-75 -93t-39 -119t-12.5 -130.5z" />
<glyph unicode="&#xa3;" horiz-adv-x="1097" d="M45 653v133h129q-46 55 -71 134t-25 155q0 123 70 221.5t179 149.5t230 51q240 0 376.5 -129t137.5 -377h-233q-8 145 -72 228.5t-205 83.5q-98 0 -162.5 -63.5t-64.5 -176.5q0 -102 94 -277h301v-133h-252q33 -59 33 -137q0 -104 -55.5 -184.5t-151.5 -151.5l4 -4 q10 4 36 15t39.5 16t34.5 11.5t40.5 9.5t38.5 3q66 0 166 -34q4 -1 19.5 -7.5t20.5 -8t18.5 -6.5t22 -6.5t21 -4t24.5 -3.5t25 -1q108 0 199 78l104 -158q-76 -64 -150.5 -89.5t-177.5 -25.5q-39 0 -112 14.5t-90 16.5q-121 41 -215 41q-55 0 -112 -19t-95 -51l-109 166 q85 58 153 151.5t68 180.5q0 100 -43 188h-188z" />
<glyph unicode="&#xa4;" horiz-adv-x="1124" d="M33 299l117 125q-103 115 -103 291q0 198 103 295l-117 125l117 116l116 -114q51 43 132 68.5t167 25.5q81 0 157 -25t124 -67l119 116l125 -125l-115 -118q46 -48 71 -126.5t25 -166.5q0 -181 -98 -299l112 -121l-112 -113l-117 119q-50 -49 -128 -75.5t-165 -26.5 q-192 0 -301 100l-115 -119zM268 715q0 -128 85.5 -215.5t209.5 -87.5q123 0 205 90t82 217q0 124 -82 213.5t-203 89.5q-127 0 -212 -89t-85 -218z" />
<glyph unicode="&#xa5;" horiz-adv-x="1103" d="M-20 1462h260l319 -655l326 655h254l-385 -719h202v-133h-280v-139h280v-133h-280v-338h-234v338h-280v133h280v139h-280v133h200z" />
<glyph unicode="&#xa6;" horiz-adv-x="456" d="M123 -182v512h209v-512h-209zM123 842v512h209v-512h-209z" />
<glyph unicode="&#xa7;" horiz-adv-x="1114" d="M31 639q0 213 221 305q-46 49 -67 96t-21 111q0 79 35 146t92.5 109.5t129 66.5t146.5 24q179 0 295.5 -105.5t116.5 -281.5h-221q-5 89 -56.5 146t-136.5 57q-66 0 -117 -43.5t-51 -110.5q0 -46 29.5 -87t77.5 -71.5t109.5 -64t125.5 -63t125.5 -69.5t109.5 -82.5 t77.5 -103.5t29.5 -131q0 -95 -63 -180t-154 -114q58 -49 85.5 -110.5t27.5 -152.5q0 -83 -33.5 -151t-90.5 -110.5t-129.5 -65.5t-152.5 -23q-126 0 -224 48t-156.5 144t-61.5 228h221q8 -113 61 -174.5t154 -61.5q178 0 178 166q0 27 -9 53t-20.5 46t-37 43t-43 37 t-56 36.5t-57 33t-65.5 34.5t-64 33q-60 29 -106.5 55.5t-96.5 64t-82.5 76.5t-53.5 90t-21 107zM252 666q0 -96 113 -160l372 -209q123 53 123 168q0 47 -30.5 86t-112.5 84l-340 194q-57 -18 -91 -61t-34 -102z" />
<glyph unicode="&#xa8;" horiz-adv-x="405" d="M-90 1233v221h233v-221h-233zM262 1233v221h234v-221h-234z" />
<glyph unicode="&#xa9;" horiz-adv-x="1558" d="M27 731q0 168 60.5 312.5t163.5 243t240.5 154.5t288.5 56q150 0 286.5 -56t239 -154.5t163.5 -243t61 -312.5t-61 -312.5t-163.5 -243t-239 -154.5t-286.5 -56q-162 0 -302.5 58.5t-239.5 160.5t-155 243.5t-56 303.5zM190 731q0 -130 41.5 -245.5t116 -201.5 t186.5 -136t246 -50q122 0 230 46.5t186.5 129t124 201t45.5 256.5q0 137 -45.5 255.5t-124 201t-186.5 129.5t-230 47q-124 0 -233 -47t-187.5 -129.5t-124 -201t-45.5 -255.5zM371 731q0 190 117 315t313 125q145 0 244.5 -80.5t119.5 -228.5h-139q-18 79 -78 127.5 t-147 48.5q-125 0 -195.5 -87t-70.5 -220q0 -138 74.5 -234t195.5 -96q91 0 150.5 51t70.5 132h141q-24 -145 -125 -230.5t-237 -85.5q-194 0 -314 131t-120 332z" />
<glyph unicode="&#xaa;" horiz-adv-x="700" d="M-4 954q0 33 9 59.5t22 45t37 34.5t43.5 25t53.5 18t54 12.5t57 10.5q7 1 20 3q32 5 47 7.5t39.5 7.5t36 9.5t25 12t18.5 17t5 21.5q0 31 -10.5 51t-31.5 28t-38 10.5t-43 2.5q-66 0 -102.5 -19t-40.5 -67h-174q6 61 35.5 105.5t77 68.5t100 34.5t114.5 10.5 q75 0 138.5 -18.5t108 -63t44.5 -108.5v-309q0 -26 6.5 -36t28.5 -9h14q13 0 19 2v-140q-46 -16 -97 -16q-56 0 -86.5 22.5t-40.5 77.5q-28 -42 -101 -71t-138 -29q-104 0 -177 50.5t-73 139.5zM174 965q0 -39 30.5 -53.5t84.5 -14.5q174 0 174 109v90q-23 -12 -77 -21 t-98 -15.5t-79 -30.5t-35 -64z" />
<glyph unicode="&#xab;" horiz-adv-x="901" d="M84 442v230l317 252v-211l-194 -156l194 -156v-211zM489 442v230l318 252v-211l-195 -156l195 -156v-211z" />
<glyph unicode="&#xac;" horiz-adv-x="1200" d="M84 621v208h1032v-608h-209v400h-823z" />
<glyph unicode="&#xad;" horiz-adv-x="794" d="M98 446v222h596v-222h-596z" />
<glyph unicode="&#xae;" horiz-adv-x="1558" d="M27 731q0 168 60.5 312.5t163.5 243t240.5 154.5t288.5 56q150 0 286.5 -56t239 -154.5t163.5 -243t61 -312.5t-61 -312.5t-163.5 -243t-239 -154.5t-286.5 -56q-162 0 -302.5 58.5t-239.5 160.5t-155 243.5t-56 303.5zM190 731q0 -130 41.5 -245.5t116 -201.5 t186.5 -136t246 -50q122 0 230 46.5t186.5 129t124 201t45.5 256.5q0 137 -45.5 255.5t-124 201t-186.5 129.5t-230 47q-124 0 -233 -47t-187.5 -129.5t-124 -201t-45.5 -255.5zM489 293v848h322q156 0 232.5 -58.5t76.5 -185.5q0 -206 -221 -231l238 -373h-158l-219 362 h-131v-362h-140zM629 774h155q36 0 61 2t53 9.5t44.5 21.5t27.5 39t11 61q0 30 -11.5 52t-29 33.5t-44 18.5t-48.5 9t-51 2h-168v-248z" />
<glyph unicode="&#xaf;" horiz-adv-x="307" d="M-141 1278v133h590v-133h-590z" />
<glyph unicode="&#xb0;" horiz-adv-x="802" d="M94 1155q0 127 90 217t217 90q128 0 218 -90t90 -217t-90 -217t-218 -90q-127 0 -217 90t-90 217zM209 1155q0 -79 56.5 -135.5t135.5 -56.5q80 0 136.5 56.5t56.5 135.5t-57 136t-136 57t-135.5 -56.5t-56.5 -136.5z" />
<glyph unicode="&#xb1;" horiz-adv-x="1200" d="M84 0v209h1032v-209h-1032zM84 571v209h412v256h209v-256h411v-209h-411v-256h-209v256h-412z" />
<glyph unicode="&#xb2;" horiz-adv-x="727" d="M31 559q1 119 53.5 202.5t151.5 147.5q23 16 74 47.5t78.5 51.5t61.5 50t50 63t18 71q0 63 -42.5 95t-106.5 32q-138 0 -150 -191h-178q0 155 90.5 244.5t245.5 89.5q139 0 229 -66.5t90 -199.5q0 -48 -17 -91.5t-49 -79t-65 -62.5t-78 -56q-23 -15 -63.5 -40t-64 -40.5 t-51 -37t-44 -42.5t-24.5 -45h436v-143h-645z" />
<glyph unicode="&#xb3;" horiz-adv-x="714" d="M20 858h164q-5 -74 41.5 -124t130.5 -50q74 0 124 39.5t50 105.5q0 156 -243 144v119q85 -5 146 26.5t61 98.5q0 50 -44 76t-98 26q-68 0 -110.5 -44.5t-38.5 -111.5h-164q6 141 90 220t225 79q60 0 112.5 -13t96.5 -40t69 -74t25 -110q0 -139 -131 -185v-4 q78 -13 123 -71t45 -144q0 -131 -96.5 -205.5t-241.5 -74.5q-164 0 -247.5 82t-88.5 235z" />
<glyph unicode="&#xb4;" horiz-adv-x="442" d="M82 1206l184 293h277l-291 -293h-170z" />
<glyph unicode="&#xb5;" d="M100 -391v1450h234v-649q0 -135 51 -194.5t152 -59.5q260 0 260 288v615h233v-1059h-229v147h-4q-43 -77 -124.5 -126.5t-154.5 -49.5q-121 0 -184 74v-436h-234z" />
<glyph unicode="&#xb6;" horiz-adv-x="1200" d="M35 1077q0 198 126.5 291.5t350.5 93.5h530v-1790h-163v1657h-240v-1657h-164v1033q-197 0 -318.5 104.5t-121.5 267.5z" />
<glyph unicode="&#xb7;" horiz-adv-x="538" d="M117 618q0 60 46 106t107 46t107.5 -46t46.5 -106q0 -62 -45.5 -108.5t-108.5 -46.5q-62 0 -107.5 46.5t-45.5 108.5z" />
<glyph unicode="&#xb8;" horiz-adv-x="442" d="M-2 -410l37 82q68 -32 133 -32q125 0 125 84q0 36 -28 56.5t-66 20.5q-47 0 -80 -20l-45 39l135 180h98l-94 -121l2 -2q21 8 68 8q67 0 120.5 -40t53.5 -113q0 -95 -73.5 -142t-174.5 -47q-127 0 -211 47z" />
<glyph unicode="&#xb9;" horiz-adv-x="755" d="M113 1182v118q110 0 186.5 35.5t95.5 108.5h144v-885h-179v623h-247z" />
<glyph unicode="&#xba;" horiz-adv-x="735" d="M4 1112q0 162 94.5 256t270.5 94t270 -94t94 -256t-93.5 -255t-270.5 -93t-271 93t-94 255zM182 1112q0 -85 49 -150t138 -65q62 0 104.5 33.5t60.5 79.5t21 102q0 86 -49 151.5t-137 65.5q-89 0 -138 -65.5t-49 -151.5z" />
<glyph unicode="&#xbb;" horiz-adv-x="901" d="M92 190v211l195 156l-195 156v211l318 -252v-230zM498 190v211l194 156l-194 156v211l317 -252v-230z" />
<glyph unicode="&#xbc;" horiz-adv-x="1652" d="M51 1182v118q110 0 187 35.5t96 108.5h143v-885h-178v623h-248zM264 -49l858 1532h160l-856 -1532h-162zM870 199v166l379 512h199v-525h96v-153h-96v-199h-178v199h-400zM1026 352h244v324h-4z" />
<glyph unicode="&#xbd;" horiz-adv-x="1691" d="M51 1182v118q110 0 187 35.5t96 108.5h143v-885h-178v623h-248zM258 -49l858 1532h160l-856 -1532h-162zM946 0q0 84 27 151.5t70 111t95 79.5t104 65.5t95 60t70 72t27 93.5q0 64 -42.5 100.5t-107.5 36.5q-42 0 -71.5 -17t-45 -47.5t-22.5 -63t-10 -73.5h-179 q0 161 88 252.5t248 91.5q139 0 229.5 -71t90.5 -205q0 -50 -16 -92.5t-49 -78.5t-64.5 -61t-79.5 -57q-13 -8 -46 -27.5t-47 -28.5t-40.5 -26t-40.5 -29t-31 -28.5t-27 -32.5t-16 -33h436v-143h-645z" />
<glyph unicode="&#xbe;" horiz-adv-x="1732" d="M43 858h164q-5 -74 41.5 -124t130.5 -50q74 0 124 39.5t50 105.5q0 154 -244 142v119q84 -5 145.5 27.5t61.5 99.5q0 50 -43.5 76t-97.5 26q-68 0 -111 -44.5t-39 -111.5h-164q6 141 90.5 220t225.5 79q60 0 112.5 -13t96.5 -40t69 -74t25 -110q0 -139 -131 -185v-4 q78 -13 123 -71t45 -144q0 -131 -96.5 -205.5t-241.5 -74.5q-164 0 -247.5 82t-88.5 235zM412 -49l858 1532h160l-857 -1532h-161zM981 199v166l375 512h203v-525h96v-153h-96v-199h-179v199h-399zM1137 352h243v324h-4z" />
<glyph unicode="&#xbf;" horiz-adv-x="1073" d="M68 -6q0 56 11 103t24.5 77.5t42.5 63.5t47 49t55 47q42 36 60 52t47 50t41 63.5t22 76.5t10 104h221q0 -170 -36 -256t-124 -160q-8 -7 -31.5 -27t-32 -27.5t-27 -25.5t-25.5 -28.5t-19.5 -30t-17 -36t-8.5 -39.5t-4 -48q0 -55 20 -99t51.5 -68.5t64.5 -37t64 -12.5 q123 0 185.5 79.5t62.5 215.5h234q0 -219 -133.5 -354.5t-358.5 -135.5q-193 0 -319.5 109t-126.5 295zM397 831v256h275v-256h-275z" />
<glyph unicode="&#xc0;" horiz-adv-x="1363" d="M-16 0l561 1462h272l563 -1462h-274l-137 387h-584l-137 -387h-264zM348 1896h275l186 -292h-170zM455 582h446l-219 628h-6z" />
<glyph unicode="&#xc1;" horiz-adv-x="1363" d="M-16 0l561 1462h272l563 -1462h-274l-137 387h-584l-137 -387h-264zM455 582h446l-219 628h-6zM559 1604l184 292h277l-291 -292h-170z" />
<glyph unicode="&#xc2;" horiz-adv-x="1363" d="M-16 0l561 1462h272l563 -1462h-274l-137 387h-584l-137 -387h-264zM346 1604l219 292h228l221 -292h-191l-145 184l-143 -184h-189zM455 582h446l-219 628h-6z" />
<glyph unicode="&#xc3;" horiz-adv-x="1363" d="M-16 0l561 1462h272l563 -1462h-274l-137 387h-584l-137 -387h-264zM322 1628q14 89 70.5 160.5t142.5 71.5q40 0 72 -7.5t93 -33.5q84 -37 127 -37q80 0 103 90h114q-17 -114 -67 -166q-57 -70 -160 -70q-65 0 -151 39q-86 37 -140 37q-73 0 -88 -84h-116zM455 582h446 l-219 628h-6z" />
<glyph unicode="&#xc4;" horiz-adv-x="1363" d="M-16 0l561 1462h272l563 -1462h-274l-137 387h-584l-137 -387h-264zM387 1630v221h234v-221h-234zM455 582h446l-219 628h-6zM739 1630v221h234v-221h-234z" />
<glyph unicode="&#xc5;" horiz-adv-x="1363" d="M-16 0l561 1462h272l563 -1462h-274l-137 387h-584l-137 -387h-264zM455 582h446l-219 628h-6zM465 1749q0 93 63 152t150 59q89 0 151 -59t62 -152q0 -92 -62.5 -151.5t-150.5 -59.5q-89 0 -151 59.5t-62 151.5zM555 1749q0 -53 35.5 -89t87.5 -36q54 0 88.5 35.5 t34.5 89.5q0 55 -34.5 90t-88.5 35q-52 0 -87.5 -35t-35.5 -90z" />
<glyph unicode="&#xc6;" horiz-adv-x="1961" d="M-16 0l727 1462h1179v-221h-712v-383h667v-209h-667v-428h725v-221h-969v375h-490l-176 -375h-284zM539 569h395v672h-74z" />
<glyph unicode="&#xc7;" horiz-adv-x="1429" d="M59 731q0 156 49 295t137.5 244t222 166t292.5 61q166 0 300 -58.5t219 -173t101 -268.5h-256q-74 291 -364 291q-91 0 -166 -31t-126 -84t-86 -124.5t-51 -151.5t-16 -166t16 -166t51 -151.5t86 -124.5t126 -84t166 -31q164 0 259.5 106.5t113.5 276.5h249 q-9 -129 -56.5 -238t-126 -185.5t-188 -120.5t-237.5 -46l-65 -86v-4q16 6 67 6q68 0 121 -39.5t53 -111.5q0 -50 -21.5 -87t-58.5 -58t-79 -30.5t-89 -9.5q-134 0 -210 43l36 82q6 -2 25 -8.5t28 -9t25 -7t29.5 -6t26.5 -1.5q124 0 124 84q0 36 -28 56.5t-66 20.5 q-47 0 -80 -20l-45 39l113 149q-189 19 -332 127t-216 273t-73 362z" />
<glyph unicode="&#xc8;" horiz-adv-x="1267" d="M127 0v1462h1053v-221h-797v-383h737v-209h-737v-428h811v-221h-1067zM358 1896h275l186 -292h-170z" />
<glyph unicode="&#xc9;" horiz-adv-x="1267" d="M127 0v1462h1053v-221h-797v-383h737v-209h-737v-428h811v-221h-1067zM539 1604l184 292h276l-290 -292h-170z" />
<glyph unicode="&#xca;" horiz-adv-x="1265" d="M125 0v1462h1053v-221h-797v-383h737v-209h-737v-428h811v-221h-1067zM319 1604l220 292h227l221 -292h-190l-146 184l-143 -184h-189z" />
<glyph unicode="&#xcb;" horiz-adv-x="1265" d="M125 0v1462h1053v-221h-797v-383h737v-209h-737v-428h811v-221h-1067zM365 1630v221h233v-221h-233zM717 1630v221h233v-221h-233z" />
<glyph unicode="&#xcc;" horiz-adv-x="512" d="M-80 1896h275l186 -292h-170zM125 0v1462h256v-1462h-256z" />
<glyph unicode="&#xcd;" horiz-adv-x="514" d="M129 0v1462h256v-1462h-256zM131 1604l184 292h277l-291 -292h-170z" />
<glyph unicode="&#xce;" horiz-adv-x="507" d="M-80 1604l219 292h228l221 -292h-191l-145 184l-143 -184h-189zM125 0v1462h256v-1462h-256z" />
<glyph unicode="&#xcf;" horiz-adv-x="477" d="M-55 1630v221h233v-221h-233zM109 0v1462h256v-1462h-256zM297 1630v221h233v-221h-233z" />
<glyph unicode="&#xd0;" horiz-adv-x="1441" d="M-12 649v209h137v604h606q164 0 290 -57t202.5 -158t114.5 -231t38 -285t-38 -285t-114.5 -231t-202.5 -158t-290 -57h-606v649h-137zM381 209h252q117 0 204 26.5t140.5 71.5t86 113.5t44.5 142t12 168.5t-12 168.5t-44.5 142t-86 113.5t-140.5 71.5t-204 26.5h-252 v-395h399v-209h-399v-440z" />
<glyph unicode="&#xd1;" horiz-adv-x="1435" d="M125 0v1462h270l668 -1077h4v1077h244v-1462h-271l-665 1075h-6v-1075h-244zM358 1628q14 89 70.5 160.5t142.5 71.5q40 0 72.5 -8t93.5 -33q84 -37 127 -37q80 0 103 90h114q-17 -114 -67 -166q-57 -70 -160 -70q-66 0 -152 39q-86 37 -139 37q-73 0 -88 -84h-117z" />
<glyph unicode="&#xd2;" horiz-adv-x="1515" d="M57 731q0 156 49 295t137.5 244t222 166t292.5 61t292.5 -61t221.5 -166t137 -244t49 -295q0 -126 -30.5 -241t-90.5 -210.5t-143.5 -166t-195.5 -109.5t-240 -39q-212 0 -373.5 104.5t-244.5 277.5t-83 384zM313 731q0 -86 16 -166t51 -151.5t86 -124.5t126 -84t166 -31 q113 0 200.5 47t139.5 127t78 177t26 206t-26 206t-78 177t-139.5 127t-200.5 47q-91 0 -166 -31t-126 -84t-86 -124.5t-51 -151.5t-16 -166zM367 1896h274l186 -292h-170z" />
<glyph unicode="&#xd3;" horiz-adv-x="1515" d="M57 731q0 156 49 295t137.5 244t222 166t292.5 61t292.5 -61t221.5 -166t137 -244t49 -295q0 -126 -30.5 -241t-90.5 -210.5t-143.5 -166t-195.5 -109.5t-240 -39q-212 0 -373.5 104.5t-244.5 277.5t-83 384zM313 731q0 -86 16 -166t51 -151.5t86 -124.5t126 -84t166 -31 q113 0 200.5 47t139.5 127t78 177t26 206t-26 206t-78 177t-139.5 127t-200.5 47q-91 0 -166 -31t-126 -84t-86 -124.5t-51 -151.5t-16 -166zM662 1604l184 292h276l-291 -292h-169z" />
<glyph unicode="&#xd4;" horiz-adv-x="1515" d="M57 731q0 156 49 295t137.5 244t222 166t292.5 61t292.5 -61t221.5 -166t137 -244t49 -295q0 -126 -30.5 -241t-90.5 -210.5t-143.5 -166t-195.5 -109.5t-240 -39q-212 0 -373.5 104.5t-244.5 277.5t-83 384zM313 731q0 -86 16 -166t51 -151.5t86 -124.5t126 -84t166 -31 q113 0 200.5 47t139.5 127t78 177t26 206t-26 206t-78 177t-139.5 127t-200.5 47q-91 0 -166 -31t-126 -84t-86 -124.5t-51 -151.5t-16 -166zM430 1604l219 292h228l221 -292h-191l-145 184l-144 -184h-188z" />
<glyph unicode="&#xd5;" horiz-adv-x="1515" d="M57 731q0 156 49 295t137.5 244t222 166t292.5 61t292.5 -61t221.5 -166t137 -244t49 -295q0 -126 -30.5 -241t-90.5 -210.5t-143.5 -166t-195.5 -109.5t-240 -39q-212 0 -373.5 104.5t-244.5 277.5t-83 384zM313 731q0 -86 16 -166t51 -151.5t86 -124.5t126 -84t166 -31 q113 0 200.5 47t139.5 127t78 177t26 206t-26 206t-78 177t-139.5 127t-200.5 47q-91 0 -166 -31t-126 -84t-86 -124.5t-51 -151.5t-16 -166zM406 1628q14 90 70 161t142 71q40 0 72.5 -8t93.5 -33q84 -37 127 -37q80 0 103 90h114q-17 -114 -67 -166q-57 -70 -160 -70 q-65 0 -151 39q-86 37 -140 37q-73 0 -88 -84h-116z" />
<glyph unicode="&#xd6;" horiz-adv-x="1515" d="M57 731q0 156 49 295t137.5 244t222 166t292.5 61t292.5 -61t221.5 -166t137 -244t49 -295q0 -126 -30.5 -241t-90.5 -210.5t-143.5 -166t-195.5 -109.5t-240 -39q-212 0 -373.5 104.5t-244.5 277.5t-83 384zM313 731q0 -86 16 -166t51 -151.5t86 -124.5t126 -84t166 -31 q113 0 200.5 47t139.5 127t78 177t26 206t-26 206t-78 177t-139.5 127t-200.5 47q-91 0 -166 -31t-126 -84t-86 -124.5t-51 -151.5t-16 -166zM467 1630v221h233v-221h-233zM819 1630v221h234v-221h-234z" />
<glyph unicode="&#xd7;" horiz-adv-x="1249" d="M123 162l356 356l-356 356l176 115l324 -325l327 325l176 -115l-358 -356l358 -356l-176 -115l-327 328l-324 -328z" />
<glyph unicode="&#xd8;" horiz-adv-x="1511" d="M53 731q0 156 49 295t137.5 244t222 166t292.5 61q270 0 454 -166l154 172l88 -73l-162 -183q166 -218 166 -516q0 -126 -30.5 -241t-90.5 -210.5t-143.5 -166t-195.5 -109.5t-240 -39q-269 0 -455 168l-156 -174l-86 74l162 184q-166 215 -166 514zM309 731 q0 -191 74 -330l674 758q-110 129 -303 129q-91 0 -166 -31t-126 -84t-86 -124.5t-51 -151.5t-16 -166zM451 303q119 -129 303 -129q113 0 200.5 47t139.5 127t78 177t26 206q0 197 -76 330z" />
<glyph unicode="&#xd9;" horiz-adv-x="1435" d="M117 526v936h256v-852q0 -52 1.5 -86.5t8.5 -83t20.5 -81t39 -68t61 -56.5t90 -35t123.5 -14t123.5 14t90 35t61 56.5t39 68t20.5 81t8.5 83t1.5 86.5v852h256v-936q0 -274 -161 -417.5t-439 -143.5t-439 143.5t-161 417.5zM367 1896h274l186 -292h-170z" />
<glyph unicode="&#xda;" horiz-adv-x="1435" d="M117 526v936h256v-852q0 -52 1.5 -86.5t8.5 -83t20.5 -81t39 -68t61 -56.5t90 -35t123.5 -14t123.5 14t90 35t61 56.5t39 68t20.5 81t8.5 83t1.5 86.5v852h256v-936q0 -274 -161 -417.5t-439 -143.5t-439 143.5t-161 417.5zM608 1604l185 292h276l-291 -292h-170z" />
<glyph unicode="&#xdb;" horiz-adv-x="1435" d="M117 526v936h256v-852q0 -52 1.5 -86.5t8.5 -83t20.5 -81t39 -68t61 -56.5t90 -35t123.5 -14t123.5 14t90 35t61 56.5t39 68t20.5 81t8.5 83t1.5 86.5v852h256v-936q0 -274 -161 -417.5t-439 -143.5t-439 143.5t-161 417.5zM387 1604l219 292h228l221 -292h-191l-145 184 l-144 -184h-188z" />
<glyph unicode="&#xdc;" horiz-adv-x="1435" d="M117 526v936h256v-852q0 -52 1.5 -86.5t8.5 -83t20.5 -81t39 -68t61 -56.5t90 -35t123.5 -14t123.5 14t90 35t61 56.5t39 68t20.5 81t8.5 83t1.5 86.5v852h256v-936q0 -274 -161 -417.5t-439 -143.5t-439 143.5t-161 417.5zM422 1630v221h233v-221h-233zM774 1630v221 h234v-221h-234z" />
<glyph unicode="&#xdd;" horiz-adv-x="1280" d="M-37 1462h297l387 -655l381 655h287l-547 -889v-573h-256v573zM555 1604l184 292h277l-291 -292h-170z" />
<glyph unicode="&#xde;" horiz-adv-x="1310" d="M127 0v1462h256v-221h389q120 0 212 -30.5t144.5 -76t86 -109t44.5 -120t11 -117.5q0 -50 -8 -97t-27.5 -99.5t-57 -96t-90 -79.5t-133.5 -56t-182 -20h-389v-340h-256zM383 549h375q46 0 89 12.5t81.5 39t62 75.5t23.5 115q0 70 -20 119t-56 74.5t-79 36.5t-97 11h-379 v-483z" />
<glyph unicode="&#xdf;" horiz-adv-x="1146" d="M102 0v1071q0 197 125 311.5t324 114.5q113 0 211 -42t161.5 -128t63.5 -199q0 -109 -53.5 -193.5t-155.5 -115.5v-4q125 -17 200 -118t75 -232q0 -217 -127.5 -355.5t-341.5 -138.5q-56 0 -115 6v185q23 -6 80 -6q70 0 121 20.5t79 51t44.5 76t21 84.5t4.5 87 q0 137 -112 201q-78 51 -236 51v154q145 0 203 53q80 64 80 172q0 207 -207 207q-31 0 -58.5 -6.5t-56 -25t-49.5 -47t-34 -76.5t-13 -111v-1047h-234z" />
<glyph unicode="&#xe0;" horiz-adv-x="1130" d="M51 281q0 55 13 100t33 76.5t53 56.5t65 40t77.5 27t81.5 17.5t85 11.5q34 7 81.5 13t77 9.5t63 12.5t52 21.5t31 36t12.5 57.5q0 143 -219 143q-102 0 -164 -42t-69 -126h-234q6 98 48 169t111 109.5t148.5 56t173.5 17.5q81 0 154 -17t135 -52t98.5 -96.5t36.5 -141.5 v-544q0 -44 12 -62t44 -18h24q9 0 33 4v-162q-79 -27 -147 -27q-157 0 -181 129q-65 -64 -165 -96.5t-201 -32.5q-72 0 -137 19.5t-115.5 57t-80.5 98t-30 135.5zM250 1499h274l187 -293h-170zM285 291q0 -38 21.5 -65.5t56 -42t69 -21t68.5 -6.5q41 0 84.5 11t84.5 33.5 t67 63t26 92.5v174q-32 -21 -75.5 -32t-114.5 -18.5t-97 -12.5q-88 -14 -139 -53t-51 -123z" />
<glyph unicode="&#xe1;" horiz-adv-x="1130" d="M51 281q0 55 13 100t33 76.5t53 56.5t65 40t77.5 27t81.5 17.5t85 11.5q34 7 81.5 13t77 9.5t63 12.5t52 21.5t31 36t12.5 57.5q0 143 -219 143q-102 0 -164 -42t-69 -126h-234q6 98 48 169t111 109.5t148.5 56t173.5 17.5q81 0 154 -17t135 -52t98.5 -96.5t36.5 -141.5 v-544q0 -44 12 -62t44 -18h24q9 0 33 4v-162q-79 -27 -147 -27q-157 0 -181 129q-65 -64 -165 -96.5t-201 -32.5q-72 0 -137 19.5t-115.5 57t-80.5 98t-30 135.5zM285 291q0 -38 21.5 -65.5t56 -42t69 -21t68.5 -6.5q41 0 84.5 11t84.5 33.5t67 63t26 92.5v174 q-32 -21 -75.5 -32t-114.5 -18.5t-97 -12.5q-88 -14 -139 -53t-51 -123zM444 1206l185 293h276l-291 -293h-170z" />
<glyph unicode="&#xe2;" horiz-adv-x="1130" d="M51 281q0 55 13 100t33 76.5t53 56.5t65 40t77.5 27t81.5 17.5t85 11.5q34 7 81.5 13t77 9.5t63 12.5t52 21.5t31 36t12.5 57.5q0 143 -219 143q-102 0 -164 -42t-69 -126h-234q6 98 48 169t111 109.5t148.5 56t173.5 17.5q81 0 154 -17t135 -52t98.5 -96.5t36.5 -141.5 v-544q0 -44 12 -62t44 -18h24q9 0 33 4v-162q-79 -27 -147 -27q-157 0 -181 129q-65 -64 -165 -96.5t-201 -32.5q-72 0 -137 19.5t-115.5 57t-80.5 98t-30 135.5zM236 1206l219 293h227l221 -293h-190l-146 185l-143 -185h-188zM285 291q0 -38 21.5 -65.5t56 -42t69 -21 t68.5 -6.5q41 0 84.5 11t84.5 33.5t67 63t26 92.5v174q-32 -21 -75.5 -32t-114.5 -18.5t-97 -12.5q-88 -14 -139 -53t-51 -123z" />
<glyph unicode="&#xe3;" horiz-adv-x="1130" d="M51 281q0 55 13 100t33 76.5t53 56.5t65 40t77.5 27t81.5 17.5t85 11.5q34 7 81.5 13t77 9.5t63 12.5t52 21.5t31 36t12.5 57.5q0 143 -219 143q-102 0 -164 -42t-69 -126h-234q6 98 48 169t111 109.5t148.5 56t173.5 17.5q81 0 154 -17t135 -52t98.5 -96.5t36.5 -141.5 v-544q0 -44 12 -62t44 -18h24q9 0 33 4v-162q-79 -27 -147 -27q-157 0 -181 129q-65 -64 -165 -96.5t-201 -32.5q-72 0 -137 19.5t-115.5 57t-80.5 98t-30 135.5zM207 1231q14 89 70.5 160t142.5 71q40 0 72.5 -8t93.5 -33q84 -37 127 -37q79 0 102 91h115 q-17 -112 -68 -166q-57 -70 -160 -70q-65 0 -151 39q-86 37 -139 37q-73 0 -88 -84h-117zM285 291q0 -38 21.5 -65.5t56 -42t69 -21t68.5 -6.5q41 0 84.5 11t84.5 33.5t67 63t26 92.5v174q-32 -21 -75.5 -32t-114.5 -18.5t-97 -12.5q-88 -14 -139 -53t-51 -123z" />
<glyph unicode="&#xe4;" horiz-adv-x="1130" d="M51 281q0 55 13 100t33 76.5t53 56.5t65 40t77.5 27t81.5 17.5t85 11.5q34 7 81.5 13t77 9.5t63 12.5t52 21.5t31 36t12.5 57.5q0 143 -219 143q-102 0 -164 -42t-69 -126h-234q6 98 48 169t111 109.5t148.5 56t173.5 17.5q81 0 154 -17t135 -52t98.5 -96.5t36.5 -141.5 v-544q0 -44 12 -62t44 -18h24q9 0 33 4v-162q-79 -27 -147 -27q-157 0 -181 129q-65 -64 -165 -96.5t-201 -32.5q-72 0 -137 19.5t-115.5 57t-80.5 98t-30 135.5zM270 1233v221h234v-221h-234zM285 291q0 -38 21.5 -65.5t56 -42t69 -21t68.5 -6.5q41 0 84.5 11t84.5 33.5 t67 63t26 92.5v174q-32 -21 -75.5 -32t-114.5 -18.5t-97 -12.5q-88 -14 -139 -53t-51 -123zM623 1233v221h233v-221h-233z" />
<glyph unicode="&#xe5;" horiz-adv-x="1130" d="M51 281q0 55 13 100t33 76.5t53 56.5t65 40t77.5 27t81.5 17.5t85 11.5q34 7 81.5 13t77 9.5t63 12.5t52 21.5t31 36t12.5 57.5q0 143 -219 143q-102 0 -164 -42t-69 -126h-234q6 98 48 169t111 109.5t148.5 56t173.5 17.5q81 0 154 -17t135 -52t98.5 -96.5t36.5 -141.5 v-544q0 -44 12 -62t44 -18h24q9 0 33 4v-162q-79 -27 -147 -27q-157 0 -181 129q-65 -64 -165 -96.5t-201 -32.5q-72 0 -137 19.5t-115.5 57t-80.5 98t-30 135.5zM285 291q0 -38 21.5 -65.5t56 -42t69 -21t68.5 -6.5q41 0 84.5 11t84.5 33.5t67 63t26 92.5v174 q-32 -21 -75.5 -32t-114.5 -18.5t-97 -12.5q-88 -14 -139 -53t-51 -123zM350 1380q0 93 63 152t150 59q89 0 151 -59t62 -152q0 -92 -62.5 -151.5t-150.5 -59.5q-89 0 -151 59.5t-62 151.5zM440 1380q0 -54 36 -89.5t87 -35.5q54 0 88.5 35.5t34.5 89.5q0 55 -34.5 90 t-88.5 35q-52 0 -87.5 -35t-35.5 -90z" />
<glyph unicode="&#xe6;" horiz-adv-x="1814" d="M57 281q0 55 13 100t33 76.5t53 56.5t65 40t77.5 27t81.5 17.5t85 11.5q33 7 80 13t74.5 10t60 13t49.5 21.5t29 36t12 56.5q0 143 -207 143q-102 0 -164 -42t-69 -126h-234q5 79 34 141t74 101t106.5 64.5t125 35.5t135.5 10q76 0 135 -9.5t121.5 -43t102.5 -90.5 q110 143 336 143q106 0 192 -30.5t144.5 -85.5t96 -132.5t51.5 -170t7 -199.5h-768q0 -63 16.5 -117.5t48.5 -99t86.5 -70.5t125.5 -26q93 0 156.5 46t93.5 132h233q-44 -169 -172.5 -266t-306.5 -97q-279 0 -389 195q-66 -100 -182 -147.5t-259 -47.5q-168 0 -275.5 80.5 t-107.5 229.5zM291 291q0 -38 19 -65.5t51.5 -42t67.5 -21t75 -6.5q105 0 184.5 57.5t79.5 155.5v157q-21 -21 -62 -31t-119 -17t-104 -11q-90 -14 -141 -52.5t-51 -123.5zM989 623h535q2 129 -69.5 204.5t-199.5 75.5q-119 0 -188.5 -79.5t-77.5 -200.5z" />
<glyph unicode="&#xe7;" horiz-adv-x="1103" d="M59 518q0 121 33.5 223.5t97 180t164.5 121.5t228 44q195 0 327.5 -97.5t149.5 -284.5h-234q-13 97 -77 147.5t-164 50.5q-40 0 -77 -9t-77.5 -35t-69.5 -67t-48 -111.5t-19 -162.5q0 -69 15.5 -131.5t47.5 -115t88 -84t129 -31.5q103 0 169 63t83 178h234 q-35 -209 -158 -317q-106 -92 -270 -107l-74 -94l2 -2q21 8 68 8q67 0 120.5 -40t53.5 -113q0 -95 -73.5 -142t-174.5 -47q-127 0 -211 47l37 82q68 -32 133 -32q125 0 125 84q0 36 -28 56.5t-66 20.5q-47 0 -80 -20l-45 39l114 153q-104 6 -180 39q-141 64 -217 195.5 t-76 310.5z" />
<glyph unicode="&#xe8;" d="M53 528q0 113 36 214.5t101 178t162.5 121.5t212.5 45q122 0 224 -52t166.5 -138t94.5 -198t15 -230h-778q0 -86 29.5 -155t95 -113.5t159.5 -44.5q102 0 164.5 43.5t93.5 132.5h222q-36 -169 -169.5 -265t-310.5 -96q-245 0 -381.5 152.5t-136.5 404.5zM221 1499h275 l186 -293h-170zM287 623h544q-8 117 -79.5 198.5t-186.5 81.5q-120 0 -196.5 -79.5t-81.5 -200.5z" />
<glyph unicode="&#xe9;" d="M53 528q0 113 36 214.5t101 178t162.5 121.5t212.5 45q122 0 224 -52t166.5 -138t94.5 -198t15 -230h-778q0 -86 29.5 -155t95 -113.5t159.5 -44.5q102 0 164.5 43.5t93.5 132.5h222q-36 -169 -169.5 -265t-310.5 -96q-245 0 -381.5 152.5t-136.5 404.5zM287 623h544 q-8 117 -79.5 198.5t-186.5 81.5q-120 0 -196.5 -79.5t-81.5 -200.5zM471 1206l184 293h277l-291 -293h-170z" />
<glyph unicode="&#xea;" horiz-adv-x="1126" d="M51 528q0 113 36 214.5t101 178t162.5 121.5t212.5 45q122 0 224 -52t166.5 -138t94.5 -198t15 -230h-778q0 -86 29.5 -155t95 -113.5t159.5 -44.5q102 0 164.5 43.5t93.5 132.5h222q-36 -169 -169.5 -265t-310.5 -96q-245 0 -381.5 152.5t-136.5 404.5zM233 1206 l220 293h227l221 -293h-190l-146 185l-143 -185h-189zM285 623h544q-8 117 -79.5 198.5t-186.5 81.5q-120 0 -196.5 -79.5t-81.5 -200.5z" />
<glyph unicode="&#xeb;" horiz-adv-x="1126" d="M51 528q0 113 36 214.5t101 178t162.5 121.5t212.5 45q122 0 224 -52t166.5 -138t94.5 -198t15 -230h-778q0 -86 29.5 -155t95 -113.5t159.5 -44.5q102 0 164.5 43.5t93.5 132.5h222q-36 -169 -169.5 -265t-310.5 -96q-245 0 -381.5 152.5t-136.5 404.5zM270 1233v221 h234v-221h-234zM285 623h544q-8 117 -79.5 198.5t-186.5 81.5q-120 0 -196.5 -79.5t-81.5 -200.5zM623 1233v221h233v-221h-233z" />
<glyph unicode="&#xec;" horiz-adv-x="442" d="M-125 1499h275l186 -293h-170zM102 0v1059h234v-1059h-234z" />
<glyph unicode="&#xed;" horiz-adv-x="440" d="M104 0v1059h234v-1059h-234zM104 1206l185 293h276l-291 -293h-170z" />
<glyph unicode="&#xee;" horiz-adv-x="436" d="M-111 1206l220 293h227l221 -293h-190l-146 185l-143 -185h-189zM104 0v1059h234v-1059h-234z" />
<glyph unicode="&#xef;" horiz-adv-x="405" d="M-88 1233v221h233v-221h-233zM86 0v1059h233v-1059h-233zM264 1233v221h234v-221h-234z" />
<glyph unicode="&#xf0;" horiz-adv-x="1161" d="M57 516q0 101 32 194.5t89.5 166t145 116t190.5 43.5q88 0 156.5 -20.5t136.5 -69.5h4q-58 131 -221 268l-221 -106l-103 100l197 95q-134 57 -174 69l155 125q108 -35 213 -102l215 102l101 -100l-193 -92q154 -128 236 -301t82 -371q0 -111 -18.5 -208t-60.5 -181.5 t-105 -144t-156.5 -94t-210.5 -34.5q-229 0 -359.5 150.5t-130.5 394.5zM291 502q0 -97 27.5 -173t90 -124.5t152.5 -48.5t161 50.5t106.5 129t35.5 166.5q0 68 -16.5 129t-49 111.5t-88 80t-126.5 29.5q-79 0 -137 -27.5t-91.5 -77.5t-49 -110.5t-15.5 -134.5z" />
<glyph unicode="&#xf1;" d="M98 0v1059h221v-156l5 -4q55 89 140.5 138.5t188.5 49.5q177 0 276 -91.5t99 -268.5v-727h-233v666q-5 125 -54 181t-153 56q-115 0 -185.5 -79.5t-70.5 -198.5v-625h-234zM201 1231q14 89 70.5 160t142.5 71q40 0 72.5 -8t93.5 -33q84 -37 127 -37q79 0 102 91h115 q-17 -112 -68 -166q-57 -70 -160 -70q-65 0 -151 39q-86 37 -139 37q-74 0 -89 -84h-116z" />
<glyph unicode="&#xf2;" horiz-adv-x="1183" d="M57 530q0 247 143.5 402t391.5 155t391 -155t143 -402q0 -164 -62 -289.5t-184 -197.5t-288 -72q-249 0 -392 155t-143 404zM238 1499h274l186 -293h-170zM291 530q0 -56 11 -109.5t35 -101.5t58.5 -84t85 -57.5t111.5 -21.5t111.5 21.5t85 57.5t58.5 84t35 101.5 t11 109.5q0 71 -18 135.5t-53.5 118.5t-95 86.5t-134.5 32.5t-134.5 -32.5t-95 -86.5t-53.5 -118.5t-18 -135.5z" />
<glyph unicode="&#xf3;" horiz-adv-x="1183" d="M57 530q0 247 143.5 402t391.5 155t391 -155t143 -402q0 -164 -62 -289.5t-184 -197.5t-288 -72q-249 0 -392 155t-143 404zM291 530q0 -56 11 -109.5t35 -101.5t58.5 -84t85 -57.5t111.5 -21.5t111.5 21.5t85 57.5t58.5 84t35 101.5t11 109.5q0 71 -18 135.5 t-53.5 118.5t-95 86.5t-134.5 32.5t-134.5 -32.5t-95 -86.5t-53.5 -118.5t-18 -135.5zM475 1206l184 293h277l-291 -293h-170z" />
<glyph unicode="&#xf4;" horiz-adv-x="1181" d="M55 530q0 247 143.5 402t391.5 155t391 -155t143 -402q0 -164 -62 -289.5t-184 -197.5t-288 -72q-249 0 -392 155t-143 404zM260 1206l219 293h228l221 -293h-191l-145 185l-143 -185h-189zM289 530q0 -56 11 -109.5t35 -101.5t58.5 -84t85 -57.5t111.5 -21.5t111.5 21.5 t85 57.5t58.5 84t35 101.5t11 109.5q0 71 -18 135.5t-53.5 118.5t-95 86.5t-134.5 32.5t-134.5 -32.5t-95 -86.5t-53.5 -118.5t-18 -135.5z" />
<glyph unicode="&#xf5;" horiz-adv-x="1181" d="M55 530q0 247 143.5 402t391.5 155t391 -155t143 -402q0 -164 -62 -289.5t-184 -197.5t-288 -72q-249 0 -392 155t-143 404zM233 1231q14 89 70.5 160t142.5 71q40 0 72.5 -8t93.5 -33q84 -37 127 -37q80 0 103 91h114q-17 -114 -67 -166q-57 -70 -160 -70q-65 0 -151 39 q-86 37 -140 37q-73 0 -88 -84h-117zM289 530q0 -56 11 -109.5t35 -101.5t58.5 -84t85 -57.5t111.5 -21.5t111.5 21.5t85 57.5t58.5 84t35 101.5t11 109.5q0 71 -18 135.5t-53.5 118.5t-95 86.5t-134.5 32.5t-134.5 -32.5t-95 -86.5t-53.5 -118.5t-18 -135.5z" />
<glyph unicode="&#xf6;" horiz-adv-x="1181" d="M55 530q0 247 143.5 402t391.5 155t391 -155t143 -402q0 -164 -62 -289.5t-184 -197.5t-288 -72q-249 0 -392 155t-143 404zM289 530q0 -56 11 -109.5t35 -101.5t58.5 -84t85 -57.5t111.5 -21.5t111.5 21.5t85 57.5t58.5 84t35 101.5t11 109.5q0 71 -18 135.5 t-53.5 118.5t-95 86.5t-134.5 32.5t-134.5 -32.5t-95 -86.5t-53.5 -118.5t-18 -135.5zM301 1233v221h234v-221h-234zM653 1233v221h234v-221h-234z" />
<glyph unicode="&#xf7;" horiz-adv-x="1200" d="M84 414v209h1032v-209h-1032zM453 96q0 61 43.5 104.5t103.5 43.5t104 -44t44 -104q0 -56 -44.5 -101.5t-101.5 -45.5q-60 0 -104.5 43.5t-44.5 103.5zM453 940q0 61 43.5 104t103.5 43t104 -43.5t44 -103.5q0 -56 -44.5 -101.5t-101.5 -45.5q-60 0 -104.5 43.5 t-44.5 103.5z" />
<glyph unicode="&#xf8;" horiz-adv-x="1198" d="M55 0l133 147q-125 149 -125 383q0 247 143.5 402t391.5 155q211 0 348 -112l129 141l66 -57l-133 -146q125 -152 125 -383q0 -249 -143 -404t-392 -155q-209 0 -346 115l-131 -143zM297 530q0 -123 47 -213l457 500q-77 86 -203 86q-75 0 -134.5 -32.5t-95 -86.5 t-53.5 -118.5t-18 -135.5zM395 242q77 -86 203 -86q61 0 111.5 21.5t85 57.5t58.5 84t35 101.5t11 109.5q0 121 -47 211z" />
<glyph unicode="&#xf9;" d="M100 387v672h234v-649q0 -135 51 -194.5t152 -59.5q260 0 260 288v615h233v-1059h-229v147h-4q-42 -78 -127 -127t-174 -49q-207 0 -301.5 102t-94.5 314zM209 1499h274l187 -293h-170z" />
<glyph unicode="&#xfa;" d="M100 387v672h234v-649q0 -135 51 -194.5t152 -59.5q260 0 260 288v615h233v-1059h-229v147h-4q-42 -78 -127 -127t-174 -49q-207 0 -301.5 102t-94.5 314zM471 1206l184 293h277l-291 -293h-170z" />
<glyph unicode="&#xfb;" d="M98 387v672h234v-649q0 -135 51 -194.5t152 -59.5q260 0 260 288v615h233v-1059h-229v147h-4q-42 -78 -127 -127t-174 -49q-207 0 -301.5 102t-94.5 314zM231 1206l220 293h227l221 -293h-190l-146 185l-143 -185h-189z" />
<glyph unicode="&#xfc;" d="M98 387v672h234v-649q0 -135 51 -194.5t152 -59.5q260 0 260 288v615h233v-1059h-229v147h-4q-42 -78 -127 -127t-174 -49q-207 0 -301.5 102t-94.5 314zM268 1233v221h234v-221h-234zM621 1233v221h233v-221h-233z" />
<glyph unicode="&#xfd;" horiz-adv-x="1060" d="M6 1059h256l277 -791h4l268 791h244l-412 -1116q-58 -145 -81 -188q-66 -120 -170 -156q-54 -19 -124 -19q-82 0 -162 12v197q91 -14 111 -14q74 0 107.5 35.5t56.5 111.5l27 82zM453 1206l184 293h276l-290 -293h-170z" />
<glyph unicode="&#xfe;" horiz-adv-x="1208" d="M100 -391v1853h234v-540h4q49 75 136 120t179 45q122 0 218 -44t156 -121t91 -178.5t31 -219.5q0 -110 -28.5 -208t-83 -176t-143.5 -123.5t-202 -45.5q-108 0 -206 40.5t-148 125.5h-4v-528h-234zM326 528q0 -164 79.5 -268t217.5 -104q77 0 135 31.5t91.5 86 t49.5 118.5t16 136q0 73 -19 139t-54.5 119.5t-92 85t-126.5 31.5q-145 0 -221 -100.5t-76 -274.5z" />
<glyph unicode="&#xff;" horiz-adv-x="1060" d="M6 1059h256l277 -791h4l268 791h244l-412 -1116q-58 -145 -81 -188q-66 -120 -170 -156q-54 -19 -124 -19q-82 0 -162 12v197q91 -14 111 -14q74 0 107.5 35.5t56.5 111.5l27 82zM250 1233v221h233v-221h-233zM602 1233v221h234v-221h-234z" />
<glyph unicode="&#x152;" horiz-adv-x="2191" d="M59 725q0 124 29.5 238.5t88 211.5t140 169t192.5 112.5t239 40.5q117 0 206.5 -34.5t161.5 -116.5v116h1000v-221h-766v-383h702v-209h-702v-428h780v-221h-1014v131q-71 -84 -171 -125t-214 -41q-127 0 -236 40t-188.5 110.5t-135.5 166.5t-84 208.5t-28 234.5z M315 729q0 -69 11.5 -135.5t34 -129t59.5 -115t84.5 -92t112 -61.5t139.5 -22q80 0 148 25.5t111 66t67 88.5t24 95v544q0 124 -91 209.5t-259 85.5q-90 0 -164.5 -32t-125 -86t-85 -126.5t-50.5 -151.5t-16 -163z" />
<glyph unicode="&#x153;" horiz-adv-x="1845" d="M57 532q0 114 34.5 214.5t97.5 176.5t159.5 120t214.5 44q271 0 371 -178q57 89 156 133.5t215 44.5q108 0 192.5 -33t139.5 -89t91 -136t51 -168.5t15 -191.5h-774q0 -137 71 -225t205 -88q92 0 164 47t88 133h234q-42 -177 -169 -271t-313 -94q-280 0 -378 195 q-57 -106 -151.5 -150.5t-225.5 -44.5q-96 0 -176.5 29.5t-137.5 81t-96.5 122t-58.5 153.5t-19 175zM291 537q0 -59 7.5 -111t26.5 -102.5t48.5 -86.5t77.5 -58.5t110 -22.5t110 22.5t77.5 58.5t48.5 86.5t26.5 102.5t7.5 111q0 67 -15 129.5t-45 117t-84.5 87t-125.5 32.5 t-125.5 -32.5t-84.5 -87t-45 -117t-15 -129.5zM1020 623h541q-8 133 -76 206.5t-199 73.5q-115 0 -188 -81.5t-78 -198.5z" />
<glyph unicode="&#x178;" horiz-adv-x="1282" d="M-35 1462h297l387 -655l381 655h287l-547 -889v-573h-256v573zM358 1630v221h234v-221h-234zM711 1630v221h233v-221h-233z" />
<glyph unicode="&#x2c6;" horiz-adv-x="438" d="M-113 1206l219 293h228l221 -293h-190l-146 185l-143 -185h-189z" />
<glyph unicode="&#x2dc;" horiz-adv-x="460" d="M-131 1231q14 89 70.5 160t142.5 71q40 0 72.5 -8t93.5 -33q84 -37 127 -37q79 0 102 91h115q-17 -112 -68 -166q-57 -70 -159 -70q-66 0 -152 39q-86 37 -139 37q-73 0 -88 -84h-117z" />
<glyph unicode="&#x2000;" horiz-adv-x="980" />
<glyph unicode="&#x2001;" horiz-adv-x="1960" />
<glyph unicode="&#x2002;" horiz-adv-x="980" />
<glyph unicode="&#x2003;" horiz-adv-x="1960" />
<glyph unicode="&#x2004;" horiz-adv-x="653" />
<glyph unicode="&#x2005;" horiz-adv-x="490" />
<glyph unicode="&#x2006;" horiz-adv-x="326" />
<glyph unicode="&#x2007;" horiz-adv-x="326" />
<glyph unicode="&#x2008;" horiz-adv-x="245" />
<glyph unicode="&#x2009;" horiz-adv-x="392" />
<glyph unicode="&#x200a;" horiz-adv-x="108" />
<glyph unicode="&#x2010;" horiz-adv-x="794" d="M98 446v222h596v-222h-596z" />
<glyph unicode="&#x2011;" horiz-adv-x="794" d="M98 446v222h596v-222h-596z" />
<glyph unicode="&#x2012;" horiz-adv-x="794" d="M98 446v222h596v-222h-596z" />
<glyph unicode="&#x2013;" horiz-adv-x="995" d="M-14 446v222h1024v-222h-1024z" />
<glyph unicode="&#x2014;" horiz-adv-x="2019" d="M252 446v222h1515v-222h-1515z" />
<glyph unicode="&#x2018;" horiz-adv-x="645" d="M195 885v276q0 111 72 188.5t184 112.5v-119q-125 -47 -125 -182h125v-276h-256z" />
<glyph unicode="&#x2019;" horiz-adv-x="645" d="M195 885v119q124 18 124 182h-124v276h256v-276q0 -119 -69 -201.5t-187 -99.5z" />
<glyph unicode="&#x201a;" horiz-adv-x="645" d="M195 0v276h256v-276q0 -111 -73 -191.5t-183 -109.5v119q124 46 124 182h-124z" />
<glyph unicode="&#x201c;" horiz-adv-x="1052" d="M195 885v276q0 111 72 188.5t184 112.5v-119q-125 -47 -125 -182h125v-276h-256zM602 885v276q0 111 72 188.5t184 112.5v-119q-125 -47 -125 -182h125v-276h-256z" />
<glyph unicode="&#x201d;" horiz-adv-x="1052" d="M195 885v119q124 46 124 182h-124v276h256v-276q0 -111 -73 -191.5t-183 -109.5zM602 885v119q125 46 125 182h-125v276h256v-276q0 -111 -73 -191.5t-183 -109.5z" />
<glyph unicode="&#x201e;" horiz-adv-x="1052" d="M195 0v276h256v-276q0 -111 -73 -191.5t-183 -109.5v119q124 46 124 182h-124zM602 0v276h256v-276q0 -111 -73 -191.5t-183 -109.5v119q125 46 125 182h-125z" />
<glyph unicode="&#x2022;" horiz-adv-x="997" d="M133 731q0 152 106.5 258.5t258.5 106.5t259 -106.5t107 -258.5t-107 -259t-259 -107t-258.5 107t-106.5 259z" />
<glyph unicode="&#x2026;" horiz-adv-x="2033" d="M190 0v276h285v-276h-285zM872 0v276h285v-276h-285zM1554 0v276h285v-276h-285z" />
<glyph unicode="&#x202f;" horiz-adv-x="392" />
<glyph unicode="&#x2039;" horiz-adv-x="491" d="M80 442v230l317 252v-211l-194 -156l194 -156v-211z" />
<glyph unicode="&#x203a;" horiz-adv-x="489" d="M92 190v211l195 156l-195 156v211l318 -252v-230z" />
<glyph unicode="&#x205f;" horiz-adv-x="490" />
<glyph unicode="&#x20ac;" horiz-adv-x="1091" d="M16 532l56 130h92q-4 36 -4 65q0 12 4 74h-148l54 131h108q52 235 187 373q157 157 403 157q176 0 365 -127l-95 -186q-131 131 -286 131q-138 0 -230 -109q-77 -95 -104 -239h540l-53 -131h-502q-2 -6 -2 -29v-47q0 -57 2 -63h474l-52 -130h-411q24 -165 104 -260 q91 -116 250 -116q107 0 170 32q58 28 139 103v-228q-140 -90 -309 -90q-276 0 -428 168q-131 143 -166 391h-158z" />
<glyph unicode="&#x2122;" horiz-adv-x="2052" d="M127 1329v133h680v-133h-258v-711h-164v711h-258zM979 618v844h238l231 -598l229 598h236v-844h-154v660h-4l-252 -660h-114l-252 660h-4v-660h-154z" />
<glyph unicode="&#x25fc;" horiz-adv-x="1054" d="M0 0v1055h1055v-1055h-1055z" />
</font>
</defs>
</svg>
