<?xml version="1.0" standalone="no"?>
<!DOCTYPE svg PUBLIC "-//W3C//DTD SVG 1.1//EN" "http://www.w3.org/Graphics/SVG/1.1/DTD/svg11.dtd" >
<svg xmlns="http://www.w3.org/2000/svg">
<metadata></metadata>
<defs>
<font id="helvneue_light_for_ibmregular" horiz-adv-x="1253" >
<font-face units-per-em="2048" ascent="1462" descent="-586" />
<missing-glyph horiz-adv-x="487" />
<glyph unicode="&#xfb01;" horiz-adv-x="933" d="M25 948v109h180v96q0 73 11 126t38.5 96t79 65t127.5 22q53 0 108 -8v-111q-64 11 -94 11q-26 0 -46.5 -3.5t-35 -13t-25 -18t-17 -26t-10 -29.5t-5 -35.5t-2 -37.5t-0.5 -42v-92h209v-109h-209v-948h-129v948h-180zM668 0v1057h129v-1057h-129zM668 1255v207h129v-207 h-129z" />
<glyph unicode="&#xfb02;" horiz-adv-x="933" d="M25 948v109h180v96q0 73 11 126t38.5 96t79 65t127.5 22q53 0 108 -8v-111q-64 11 -94 11q-26 0 -46.5 -3.5t-35 -13t-25 -18t-17 -26t-10 -29.5t-5 -35.5t-2 -37.5t-0.5 -42v-92h209v-109h-209v-948h-129v948h-180zM668 0v1462h129v-1462h-129z" />
<glyph horiz-adv-x="1024" />
<glyph horiz-adv-x="1024" />
<glyph horiz-adv-x="682" />
<glyph unicode="&#xd;" horiz-adv-x="0" />
<glyph unicode=" "  horiz-adv-x="487" />
<glyph unicode="&#x09;" horiz-adv-x="487" />
<glyph unicode="&#xa0;" horiz-adv-x="487" />
<glyph unicode="!" horiz-adv-x="518" d="M174 0v217h172v-217h-172zM190 1026v436h140v-436l-31 -661h-78z" />
<glyph unicode="&#x22;" horiz-adv-x="782" d="M190 965v497h129v-497h-129zM463 965v497h129v-497h-129z" />
<glyph unicode="#" horiz-adv-x="1163" d="M84 457v92h238l45 319h-226v93h238l63 454h103l-64 -454h289l64 454h102l-64 -454h215v-93h-227l-45 -319h215v-92h-227l-64 -457h-102l63 457h-288l-64 -457h-102l63 457h-225zM424 549h289l45 319h-289z" />
<glyph unicode="$" horiz-adv-x="1163" d="M72 467h129q3 -350 338 -389v606q-79 17 -134.5 34t-115.5 49t-96.5 73t-60 106t-23.5 148q0 180 123.5 289.5t306.5 109.5v160h79v-160q184 0 311.5 -124t123.5 -320h-129q-1 153 -85.5 244t-220.5 91v-589q57 -12 101 -23.5t95.5 -30t89.5 -40.5t75 -53.5t60.5 -69 t38 -88.5t14.5 -111q0 -98 -40 -177.5t-107 -129.5t-151 -76.5t-176 -26.5v-174h-79v176q-238 23 -348.5 142t-118.5 354zM238 1079q0 -40 9.5 -73t22.5 -56t39 -43.5t46 -32t58 -25t60 -19.5t66 -17v571q-132 0 -216.5 -76t-84.5 -229zM618 78q67 0 127 17.5t109.5 52 t79 93.5t29.5 136q0 56 -21.5 101.5t-52.5 74t-81.5 52.5t-91 36.5t-98.5 26.5v-590z" />
<glyph unicode="%" horiz-adv-x="1845" d="M154 1059q0 175 80 281t245 106t245.5 -106t80.5 -281t-80.5 -281t-245.5 -106t-245 106t-80 281zM262 1057q0 -53 10 -101t32.5 -93t67.5 -72t107 -27q61 0 105.5 27t67.5 72t33.5 93t10.5 101q0 42 -6 81.5t-21.5 79.5t-39.5 69.5t-62.5 48t-87.5 18.5q-50 0 -89 -18.5 t-62.5 -48t-39 -69.5t-21 -79.5t-5.5 -81.5zM401 -70l928 1555h96l-925 -1555h-99zM1053 356q0 175 80 281t245 106t245.5 -106t80.5 -281t-80.5 -281t-245.5 -106t-245 106t-80 281zM1161 354q0 -53 10 -101t32.5 -93t67.5 -72t107 -27q61 0 105.5 27t67.5 72t33.5 93 t10.5 101q0 42 -6 81.5t-21.5 79.5t-39.5 69.5t-62.5 48t-87.5 18.5q-50 0 -89 -18.5t-62.5 -48t-39 -69.5t-21 -79.5t-5.5 -81.5z" />
<glyph unicode="&#x26;" horiz-adv-x="1275" d="M92 379q0 241 359 434q-6 8 -34 43t-37.5 48t-32.5 45t-32 52t-22 49.5t-18 57.5t-5 57q0 131 94 214t230 83t230 -83t94 -214q0 -53 -17 -101t-41.5 -84t-65.5 -73.5t-76.5 -63t-86.5 -57.5l319 -385q25 52 34 105t9 141h129q0 -76 -20 -170.5t-66 -179.5l246 -297h-162 l-155 190q-82 -103 -193 -162t-237 -59q-195 0 -319 108.5t-124 301.5zM221 367q0 -125 95.5 -207t222.5 -82q104 0 191.5 57t154.5 152l-365 442q-61 -33 -107.5 -65t-93.5 -77t-72.5 -101t-25.5 -119zM399 1165q0 -36 14.5 -75.5t44.5 -83.5t49.5 -69t55.5 -67 q49 31 80 55t69 62t57 82.5t19 95.5q0 89 -55.5 139t-138.5 50t-139 -50t-56 -139z" />
<glyph unicode="'" horiz-adv-x="593" d="M233 965v497h129v-497h-129z" />
<glyph unicode="(" horiz-adv-x="518" d="M117 545q0 500 289 948h102q-262 -422 -262 -995q0 -220 71.5 -460t190.5 -429h-102q-146 242 -217.5 462t-71.5 474z" />
<glyph unicode=")" horiz-adv-x="518" d="M10 -391q262 422 262 995q0 218 -71.5 453.5t-190.5 435.5h103q145 -242 216.5 -461.5t71.5 -474.5q0 -502 -288 -948h-103z" />
<glyph unicode="*" horiz-adv-x="745" d="M68 1219l28 75l236 -84v252h80v-252l235 84l31 -75l-242 -80l148 -201l-66 -47l-149 205l-150 -205l-65 47l149 201z" />
<glyph unicode="+" d="M113 461v108h460v461h109v-461h461v-108h-461v-461h-109v461h-460z" />
<glyph unicode="," horiz-adv-x="417" d="M115 -193q46 16 72.5 78t21.5 115h-86v217h172v-219q0 -96 -47 -176t-133 -103v88z" />
<glyph unicode="-" horiz-adv-x="782" d="M135 504v119h512v-119h-512z" />
<glyph unicode="." horiz-adv-x="417" d="M123 0v217h172v-217h-172z" />
<glyph unicode="/" horiz-adv-x="706" d="M-14 -31l630 1524h105l-625 -1524h-110z" />
<glyph unicode="0" horiz-adv-x="1216" d="M109 707q0 77 5.5 147t20.5 146t38.5 139t62.5 121.5t90 98.5t123 63.5t159 23.5t159 -23.5t123 -63.5t90 -98t63 -121t39 -139t20.5 -145.5t5.5 -146.5t-5.5 -147t-20.5 -146t-39 -139.5t-63 -121.5t-90 -98.5t-123 -64t-159 -23.5t-159 23.5t-123 64t-90 98.5 t-62.5 121t-38.5 139t-20.5 145.5t-5.5 146.5zM238 709q0 -631 370 -631q68 0 123.5 22.5t93.5 58.5t66.5 89t45 107t26.5 120t13 120t3 114t-3 113.5t-13 119t-26.5 119.5t-45 106.5t-66.5 89t-93.5 58.5t-123.5 22q-370 0 -370 -628z" />
<glyph unicode="1" horiz-adv-x="819" d="M115 1065v92q46 1 72.5 2.5t64 5t59.5 9t51 15.5t46.5 24t37.5 34t32 47t23 62t17 78h105v-1434h-129v1065h-379z" />
<glyph unicode="2" horiz-adv-x="1112" d="M84 0q2 102 38 189t90 147t130 120t146.5 104t151.5 102.5t134 111.5q62 62 90.5 124t28.5 146q0 135 -93 214t-229 79q-86 0 -150.5 -32.5t-102 -88.5t-55 -126t-15.5 -152h-129q-5 229 114 368.5t345 139.5q195 0 319.5 -105.5t124.5 -298.5q0 -86 -28.5 -162 t-82.5 -139t-112 -110.5t-137 -98.5q-21 -14 -76.5 -49t-91 -57.5t-86.5 -62.5t-83 -74t-59 -79.5t-35 -90.5h797v-119h-944z" />
<glyph unicode="3" horiz-adv-x="1183" d="M106 457h130q-8 -171 89.5 -275t268.5 -104q96 0 178.5 35.5t135.5 109.5t53 172q0 147 -97 225t-248 78h-108v109h108q52 0 102 15.5t93 45.5t69.5 82t26.5 117q0 134 -87.5 202t-225.5 68q-157 0 -244 -99.5t-82 -262.5h-129q0 206 123.5 338.5t329.5 132.5 q86 0 164 -22t141.5 -65t101 -114.5t37.5 -163.5q0 -119 -63 -203.5t-178 -113.5v-4q140 -23 217.5 -117.5t77.5 -236.5q0 -136 -69 -237t-180 -150.5t-245 -49.5q-149 0 -263 57t-176 169t-51 262z" />
<glyph unicode="4" horiz-adv-x="1142" d="M74 356v125l663 953h117v-969h215v-109h-215v-356h-119v356h-661zM190 465h545v780h-4z" />
<glyph unicode="5" horiz-adv-x="1146" d="M84 410h129q4 -148 103.5 -240t248.5 -92q161 0 260 114.5t99 276.5q0 159 -104 266t-263 107q-97 0 -181 -44.5t-138 -125.5h-111l139 743h717v-119h-627l-92 -475l4 -4q53 62 135 97.5t168 35.5q219 0 350.5 -138t131.5 -357q0 -137 -67 -249t-181 -174.5t-250 -62.5 q-133 0 -238.5 53t-167.5 154t-65 234z" />
<glyph unicode="6" horiz-adv-x="1202" d="M121 731q0 45 3.5 94t16.5 121.5t34 137.5t60 133.5t91 117t131.5 80t175.5 31.5q193 0 305 -94t135 -281h-129q-18 121 -97.5 193.5t-201.5 72.5q-70 0 -127.5 -22t-98 -59t-71 -89.5t-49 -108.5t-30 -121.5t-15.5 -122.5t-4 -118h4q51 107 155 172.5t226 65.5 q213 0 343 -134t130 -345q0 -210 -136 -348t-349 -138q-177 0 -285.5 74t-162.5 241.5t-54 446.5zM276 446q0 -164 89.5 -266t269.5 -102q150 0 247 107.5t97 260.5q0 162 -93.5 270.5t-252.5 108.5q-164 0 -260.5 -108t-96.5 -271z" />
<glyph unicode="7" horiz-adv-x="966" d="M23 1296v119h921v-119q-66 -68 -127.5 -142.5t-143.5 -202t-143 -261.5t-108.5 -317t-56.5 -373h-140q25 365 159 661.5t431 634.5h-792z" />
<glyph unicode="8" horiz-adv-x="1196" d="M104 401q5 143 82 243t209 124v4q-113 35 -173 116t-60 199q0 89 37.5 159.5t100 113t138.5 64.5t158 22t158.5 -22t139 -64.5t100.5 -113t38 -159.5q0 -117 -61.5 -200t-171.5 -115v-4q140 -29 216.5 -125t76.5 -242q0 -140 -68 -239.5t-178 -146t-248 -46.5t-248 46.5 t-178 146t-68 239.5zM233 401q0 -155 102.5 -239t262.5 -84q161 0 263 82t102 241q0 99 -51.5 172.5t-133.5 108t-180 31.5q-155 5 -260 -78t-105 -234zM291 1087q0 -91 45.5 -154t113.5 -89t148 -23q127 -5 216 65t89 201q0 119 -85.5 184.5t-219.5 65.5q-127 0 -217 -66.5 t-90 -183.5z" />
<glyph unicode="9" horiz-adv-x="1202" d="M94 961q0 210 136.5 347.5t349.5 137.5q177 0 285.5 -74t162 -241.5t53.5 -446.5q0 -45 -3.5 -94t-16.5 -121.5t-34 -137.5t-60 -133.5t-91 -117t-131.5 -80t-175.5 -31.5q-193 0 -305 94t-135 281h129q18 -121 97.5 -193.5t201.5 -72.5q70 0 127.5 22t98 59t71 89.5 t49 108.5t30 121.5t15.5 122.5t4 118h-4q-51 -107 -155 -172.5t-226 -65.5q-213 0 -343 134.5t-130 345.5zM223 969q0 -162 93.5 -270.5t252.5 -108.5q164 0 260.5 108t96.5 271q0 164 -89.5 266t-269.5 102q-150 0 -247 -107.5t-97 -260.5z" />
<glyph unicode=":" horiz-adv-x="593" d="M211 0v217h172v-217h-172zM211 807v217h172v-217h-172z" />
<glyph unicode=";" horiz-adv-x="593" d="M203 -193q46 16 72.5 78t21.5 115h-86v217h172v-219q0 -96 -47 -176t-133 -103v88zM211 807v217h172v-217h-172z" />
<glyph unicode="&#x3c;" d="M106 463v110l1041 480v-113l-914 -422l914 -422v-112z" />
<glyph unicode="=" d="M113 262v109h1030v-109h-1030zM113 666v108h1030v-108h-1030z" />
<glyph unicode="&#x3e;" d="M106 -16v112l914 422l-914 422v113l1041 -480v-110z" />
<glyph unicode="?" horiz-adv-x="1124" d="M123 1012q0 220 123.5 350.5t341.5 130.5q176 0 296 -103t120 -276q0 -107 -45 -185.5t-134 -162.5q-21 -21 -51 -50.5t-42 -40.5t-31 -33t-24.5 -31t-16 -31t-12.5 -37t-6 -44.5t-5 -57.5t-2 -74h-129q-2 63 2 110.5t18 90t29 72t47.5 67t59.5 64t79 73.5 q133 126 133 264q0 120 -85.5 198t-206.5 78q-161 0 -248 -104t-82 -268h-129zM485 0v217h172v-217h-172z" />
<glyph unicode="@" horiz-adv-x="1662" d="M109 737q0 209 100 383t272.5 273.5t378.5 99.5q195 0 353 -80t249.5 -226t91.5 -331q0 -120 -42 -231.5t-109.5 -190t-153 -125.5t-170.5 -47q-56 0 -93.5 35.5t-43.5 101.5h-4q-129 -135 -260 -135q-124 0 -197 85.5t-73 211.5q0 85 22 170t65 160.5t101 134.5t135 93 t162 34q151 0 217 -172l51 133h109l-197 -590q-11 -37 -16.5 -64.5t-5.5 -53t12.5 -39t36.5 -13.5q66 0 130.5 47.5t111 120.5t75.5 164t29 176q0 164 -80 288.5t-211 187.5t-291 63q-141 0 -262.5 -53t-205.5 -144.5t-131.5 -216t-47.5 -264.5q0 -137 49.5 -259.5 t135.5 -211t207.5 -140t258.5 -51.5q152 0 296 74t233 199h104q-93 -166 -266.5 -265.5t-366.5 -99.5q-163 0 -304.5 59.5t-241 162t-156.5 244.5t-57 302zM537 571q0 -91 47.5 -144.5t122.5 -53.5q67 0 132 50t109 123.5t71.5 156.5t27.5 151q0 72 -51 131t-111 59 q-75 0 -142 -47t-111 -118.5t-69.5 -153.5t-25.5 -154z" />
<glyph unicode="A" horiz-adv-x="1286" d="M-16 0l589 1462h156l574 -1462h-150l-178 455h-666l-176 -455h-149zM352 573h576l-283 750z" />
<glyph unicode="B" horiz-adv-x="1361" d="M145 0v1462h619q97 0 177.5 -18.5t148 -58t105.5 -111.5t38 -170q0 -117 -71 -210.5t-183 -117.5v-4q141 -19 225 -116t84 -240q0 -35 -4 -67.5t-17 -75.5t-35 -79.5t-62.5 -73.5t-93.5 -62.5t-133.5 -41.5t-178.5 -16h-619zM285 119h479q385 0 385 301q0 140 -99.5 211 t-285.5 71h-479v-583zM285 821h479q159 0 244.5 70t85.5 178q0 274 -330 274h-479v-522z" />
<glyph unicode="C" horiz-adv-x="1437" d="M76 731q0 122 27 233.5t83.5 208t137 167.5t194 112t248.5 41q142 0 267 -53.5t213.5 -163t107.5 -256.5h-140q-36 165 -160 259.5t-288 94.5q-112 0 -205.5 -36.5t-156.5 -98t-106.5 -144.5t-63 -174.5t-19.5 -189.5t19.5 -189.5t63 -174.5t106.5 -144.5t156.5 -98 t205.5 -36.5q131 0 234.5 63.5t162 168.5t72.5 237h139q-29 -272 -191 -430t-417 -158q-135 0 -248.5 41t-194 112t-137 167.5t-83.5 208t-27 233.5z" />
<glyph unicode="D" horiz-adv-x="1398" d="M145 0v1462h506q672 -15 672 -731t-672 -731h-506zM285 119h297q317 0 459.5 143t142.5 469t-142.5 469t-459.5 143h-297v-1224z" />
<glyph unicode="E" horiz-adv-x="1249" d="M145 0v1462h1010v-119h-870v-528h815v-119h-815v-577h880v-119h-1020z" />
<glyph unicode="F" horiz-adv-x="1116" d="M145 0v1462h928v-119h-788v-528h700v-119h-700v-696h-140z" />
<glyph unicode="G" horiz-adv-x="1513" d="M76 731q0 122 27 233.5t83.5 208t137 167.5t194 112t248.5 41q155 0 282 -54t214 -164.5t114 -266.5h-139q-6 64 -42 128t-95 117.5t-147 87t-187 33.5q-112 0 -205.5 -36.5t-156.5 -98t-106.5 -144.5t-63 -174.5t-19.5 -189.5t19.5 -189.5t63 -174.5t106.5 -144.5 t156.5 -98t205.5 -36.5q159 0 275.5 69.5t174.5 190.5q56 115 56 262v15h-498v118h621v-743h-101l-18 266h-4q-70 -150 -204.5 -223.5t-301.5 -73.5q-135 0 -248.5 41t-194 112t-137 167.5t-83.5 208t-27 233.5z" />
<glyph unicode="H" horiz-adv-x="1437" d="M145 0v1462h140v-635h868v635h139v-1462h-139v709h-868v-709h-140z" />
<glyph unicode="I" horiz-adv-x="450" d="M156 0v1462h139v-1462h-139z" />
<glyph unicode="J" horiz-adv-x="1019" d="M41 469h139q0 -9 1 -29q1 -40 2.5 -62t8 -64.5t17 -68.5t31.5 -59t49 -52t72.5 -32.5t99.5 -13.5q82 0 135 21t84 69t43 116t12 173v995h139v-1054q0 -228 -97 -333.5t-328 -105.5q-97 0 -171 28.5t-118 74t-71.5 112.5t-37.5 135t-10 150z" />
<glyph unicode="K" horiz-adv-x="1345" d="M145 0v1462h140v-786l850 786h188l-653 -604l684 -858h-180l-609 762l-280 -260v-502h-140z" />
<glyph unicode="L" horiz-adv-x="1157" d="M145 0v1462h140v-1343h819v-119h-959z" />
<glyph unicode="M" horiz-adv-x="1701" d="M141 0v1462h205l506 -1282l504 1282h205v-1462h-140v1264h-4l-499 -1264h-132l-501 1264h-4v-1264h-140z" />
<glyph unicode="N" horiz-adv-x="1437" d="M143 0v1462h156l852 -1237h4v1237h139v-1462h-155l-852 1237h-4v-1237h-140z" />
<glyph unicode="O" horiz-adv-x="1513" d="M68 731q0 122 27 233.5t83.5 208t137 167.5t194 112t248.5 41q134 0 247.5 -41t193.5 -112t136.5 -167.5t83.5 -208t27 -233.5t-27 -233.5t-83.5 -208t-136.5 -167.5t-193.5 -112t-247.5 -41q-135 0 -248.5 41t-194 112t-137 167.5t-83.5 208t-27 233.5zM207 731 q0 -98 19.5 -189.5t63 -174.5t106.5 -144.5t156.5 -98t205.5 -36.5t204.5 36.5t155.5 98t106.5 144.5t63 174.5t19.5 189.5t-19.5 189.5t-63 174.5t-106.5 144.5t-155.5 98t-204.5 36.5t-205.5 -36.5t-156.5 -98t-106.5 -144.5t-63 -174.5t-19.5 -189.5z" />
<glyph unicode="P" horiz-adv-x="1286" d="M145 0v1462h650q199 0 316.5 -111t117.5 -307t-117.5 -306.5t-316.5 -110.5h-510v-627h-140zM285 745h479q151 0 238.5 75.5t87.5 223.5t-87.5 223.5t-238.5 75.5h-479v-598z" />
<glyph unicode="Q" horiz-adv-x="1513" d="M68 731q0 122 27 233.5t83.5 208t137 167.5t194 112t248.5 41q134 0 247.5 -41t193.5 -112t136.5 -167.5t83.5 -208t27 -233.5q0 -173 -56.5 -324t-164.5 -255l209 -160l-70 -86l-227 172q-151 -109 -379 -109q-135 0 -248.5 41t-194 112t-137 167.5t-83.5 208t-27 233.5 zM207 731q0 -98 19.5 -189.5t63 -174.5t106.5 -144.5t156.5 -98t205.5 -36.5q154 0 270 72l-192 145l71 88l213 -162q94 89 140.5 220t46.5 280q0 98 -19.5 189.5t-63 174.5t-106.5 144.5t-155.5 98t-204.5 36.5t-205.5 -36.5t-156.5 -98t-106.5 -144.5t-63 -174.5 t-19.5 -189.5z" />
<glyph unicode="R" horiz-adv-x="1361" d="M145 0v1462h670q92 0 171 -23t141 -68t97.5 -119.5t35.5 -170.5q0 -143 -73.5 -243t-211.5 -129v-4q134 -19 191 -102.5t65 -227.5q0 -5 3 -67t6 -90.5t9.5 -79.5t19 -84.5t29.5 -53.5h-153q-12 19 -19.5 52t-10 57.5t-5.5 65.5t-4 52q-3 54 -6 89.5t-11 85t-20 81.5 t-34 67.5t-51 55.5q-28 20 -72 32q-38 11 -84 11h-15h-528v-649h-140zM285 768h520q132 0 223.5 78t91.5 207q0 138 -80 214t-235 76h-520v-575z" />
<glyph unicode="S" horiz-adv-x="1286" d="M72 481h139v-12q-1 -101 33 -175q36 -78 103.5 -122.5t151 -64t189.5 -19.5q62 0 126.5 17t124.5 51t98 93.5t38 135.5q0 59 -26.5 105.5t-74 77t-94.5 49t-106 32.5l-325 80q-56 14 -100.5 31t-89.5 45.5t-74 65t-47.5 90t-18.5 120.5q0 48 12 98t47 108t89 102.5 t146 74t210 29.5q111 0 207.5 -29.5t171.5 -85t118 -143t43 -197.5h-139q-7 159 -120.5 247.5t-278.5 88.5q-75 0 -138 -15.5t-116 -48t-83 -91t-30 -136.5q0 -174 221 -223l357 -88q67 -18 119.5 -38.5t102.5 -52.5t83 -71.5t53 -96.5t20 -126q0 -27 -3.5 -55t-17 -71 t-36 -81t-65.5 -78t-99.5 -68t-143.5 -46.5t-194 -18.5q-132 0 -239.5 30.5t-187.5 91.5t-121 161q-36 87 -36 196q0 16 1 33z" />
<glyph unicode="T" horiz-adv-x="1265" d="M53 1343v119h1159v-119h-510v-1343h-139v1343h-510z" />
<glyph unicode="U" horiz-adv-x="1398" d="M131 526v936h139v-905q0 -246 109 -357.5t319 -111.5q211 0 320.5 111.5t109.5 357.5v905h140v-936q0 -92 -20 -173.5t-63.5 -152.5t-109 -122t-162 -80t-215.5 -29q-118 0 -213.5 29t-160.5 80t-109 122t-64 152.5t-20 173.5z" />
<glyph unicode="V" horiz-adv-x="1210" d="M-16 1462h149l475 -1308h4l471 1308h148l-543 -1462h-162z" />
<glyph unicode="W" horiz-adv-x="1853" d="M-2 1462h149l332 -1280h4l357 1280h174l358 -1280h4l334 1280h139l-403 -1462h-148l-370 1309h-4l-369 -1309h-152z" />
<glyph unicode="X" horiz-adv-x="1171" d="M-27 0l527 754l-496 708h164l414 -612l428 612h155l-499 -712l528 -750h-168l-444 645l-451 -645h-158z" />
<glyph unicode="Y" horiz-adv-x="1247" d="M-23 1462h166l482 -741l479 741h166l-578 -860v-602h-139v602z" />
<glyph unicode="Z" horiz-adv-x="1224" d="M43 0v123l963 1220h-897v119h1052v-123l-962 -1220h983v-119h-1139z" />
<glyph unicode="[" horiz-adv-x="518" d="M168 -391v1884h330v-109h-201v-1667h201v-108h-330z" />
<glyph unicode="\" horiz-adv-x="706" d="M-14 1493h104l631 -1524h-111z" />
<glyph unicode="]" horiz-adv-x="518" d="M20 -283h201v1667h-201v109h330v-1884h-330v108z" />
<glyph unicode="^" d="M102 487l471 928h107l471 -928h-117l-409 799l-404 -799h-119z" />
<glyph unicode="_" horiz-adv-x="1048" d="M12 -154h1024v-102h-1024v102z" />
<glyph unicode="`" horiz-adv-x="403" d="M-51 1493h160l215 -289h-105z" />
<glyph unicode="a" horiz-adv-x="1075" d="M72 279q0 184 158 258q92 44 299 68q18 3 53 6q38 5 57 7q89 8 127.5 36t38.5 108q0 63 -21 107t-60.5 67t-86.5 33t-109 10q-127 0 -202.5 -61t-79.5 -185h-129q10 180 123.5 267t304.5 87q389 0 389 -339v-562q0 -77 76 -77q22 0 41 8v-109q-41 -8 -84 -8 q-91 0 -121.5 45.5t-30.5 138.5h-4q-37 -56 -70.5 -92t-78.5 -66t-103 -43.5t-133 -13.5q-101 0 -179.5 32t-126.5 103.5t-48 174.5zM201 287q0 -93 69.5 -151t165.5 -58q155 0 262 91t107 241v168h-4q-17 -32 -109 -48q-33 -6 -83.5 -13.5t-86 -12.5t-81.5 -14t-77.5 -19 t-64.5 -27t-53 -38t-32.5 -51.5t-12.5 -67.5z" />
<glyph unicode="b" horiz-adv-x="1187" d="M129 0v1462h129v-606h4q38 109 141 170t226 61q117 0 209.5 -44.5t149.5 -122.5t86.5 -177.5t29.5 -214.5t-29.5 -214.5t-86.5 -177.5t-149.5 -122.5t-209.5 -44.5q-130 0 -231.5 62t-145.5 170h-4v-201h-119zM258 528q0 -86 20.5 -163.5t62.5 -143t116 -104.5t172 -39 q71 0 130 26t98.5 69.5t66.5 102t39 121.5t12 131t-12 131.5t-39 122t-66.5 102t-98.5 69.5t-130 26q-98 0 -172 -39t-116 -105t-62.5 -143.5t-20.5 -163.5z" />
<glyph unicode="c" horiz-adv-x="1089" d="M76 528q0 154 56.5 279t171.5 202.5t271 77.5q176 0 291 -92t138 -270h-130q-56 254 -299 254q-89 0 -161 -39t-116.5 -103.5t-68.5 -144t-24 -164.5t24 -164.5t68.5 -144t116.5 -103t161 -38.5q119 0 207.5 85.5t100.5 215.5h129q-26 -192 -142.5 -301t-294.5 -109 q-156 0 -271 77.5t-171.5 202.5t-56.5 279z" />
<glyph unicode="d" horiz-adv-x="1187" d="M84 528q0 115 29.5 214.5t86.5 177.5t149.5 122.5t209.5 44.5q123 0 226 -61t141 -170h4v606h129v-1462h-119v201h-4q-40 -102 -149 -167t-228 -65q-117 0 -209.5 44.5t-149.5 122.5t-86.5 177.5t-29.5 214.5zM213 528q0 -68 12 -131t39 -121.5t66.5 -102t98.5 -69.5 t130 -26q98 0 172 39t116 104.5t62.5 143t20.5 163.5t-20.5 163.5t-62.5 143.5t-116 105t-172 39q-71 0 -130 -26t-98.5 -69.5t-66.5 -102t-39 -122t-12 -131.5z" />
<glyph unicode="e" horiz-adv-x="1095" d="M76 528q0 86 17 165.5t54.5 151.5t92 125.5t135 85t178.5 31.5t178.5 -33.5t134.5 -90t90 -132.5t50 -161q12 -70 13 -145q0 -15 -1 -31h-813q0 -58 12.5 -115.5t39.5 -112t66.5 -96t99 -67t130.5 -25.5q136 0 218 71.5t114 198.5h129q-43 -186 -154.5 -282.5 t-306.5 -96.5q-122 0 -215.5 44.5t-149.5 122.5t-84 177t-28 215zM205 602h684q-3 99 -42.5 184t-116.5 139t-177 54q-77 0 -140.5 -31.5t-105.5 -85t-67.5 -119.5t-34.5 -141z" />
<glyph unicode="f" horiz-adv-x="542" d="M18 948v109h181v96q0 73 11 126t38.5 96t79 65t127.5 22q53 0 108 -8v-111q-64 11 -94 11q-26 0 -46.5 -3.5t-35 -13t-25 -18t-17 -26t-10 -29.5t-5 -35.5t-2 -37.5t-0.5 -42v-92h209v-109h-209v-948h-129v948h-181z" />
<glyph unicode="g" horiz-adv-x="1150" d="M76 555q0 147 54.5 266.5t164.5 192.5t258 73q113 0 204.5 -61t131.5 -152h4v183h129v-971q0 -248 -110.5 -378t-358.5 -130q-65 0 -125.5 11.5t-115.5 37t-97 62.5t-68.5 90.5t-31.5 118.5h129q19 -109 105 -160t204 -51q177 0 258.5 100t81.5 299v143h-4 q-45 -100 -133.5 -158.5t-202.5 -58.5q-99 0 -179 27.5t-135 76t-92 117.5t-54 149t-17 173zM205 541q0 -82 21 -156t62.5 -133.5t109.5 -95t155 -35.5q107 0 186 61.5t116.5 155t37.5 203.5q0 64 -11.5 125t-37.5 118.5t-64.5 100t-97 68.5t-129.5 26q-89 0 -157.5 -37 t-109 -100t-61 -139.5t-20.5 -161.5z" />
<glyph unicode="h" horiz-adv-x="1112" d="M127 0v1462h129v-588h4q37 95 131 154t207 59q109 0 185.5 -27.5t120 -82t62.5 -127t19 -170.5v-680h-129v659q0 71 -13 126.5t-42.5 100.5t-83 69t-129.5 24q-151 0 -239 -101.5t-93 -261.5v-616h-129z" />
<glyph unicode="i" horiz-adv-x="391" d="M131 0v1057h129v-1057h-129zM131 1255v207h129v-207h-129z" />
<glyph unicode="j" horiz-adv-x="391" d="M-55 -281q31 -3 51 -3q10 0 18 1q69 0 93 39t24 115v1186h129v-1155q0 -64 -10 -113.5t-34 -91.5t-69.5 -65t-111.5 -23q-15 0 -45 2t-45 2v106zM131 1255v207h129v-207h-129z" />
<glyph unicode="k" horiz-adv-x="1036" d="M129 0v1462h129v-917l586 512h172l-451 -391l482 -666h-162l-418 575l-209 -174v-401h-129z" />
<glyph unicode="l" horiz-adv-x="391" d="M131 0v1462h129v-1462h-129z" />
<glyph unicode="m" horiz-adv-x="1718" d="M129 0v1057h119v-178h6q110 208 346 208q109 0 192 -53t111 -153q46 101 136.5 153.5t199.5 52.5q350 0 350 -370v-717h-129v711q0 136 -57.5 202t-192.5 66q-80 0 -138 -31t-89 -86.5t-45 -120t-14 -143.5v-598h-129v717q0 118 -52.5 190t-169.5 72 q-158 0 -236.5 -106.5t-78.5 -282.5v-590h-129z" />
<glyph unicode="n" horiz-adv-x="1112" d="M127 0v1057h129v-183h4q37 95 131 154t207 59q109 0 185.5 -27.5t120 -82t62.5 -127t19 -170.5v-680h-129v659q0 71 -13 126.5t-42.5 100.5t-83 69t-129.5 24q-151 0 -239 -101.5t-93 -261.5v-616h-129z" />
<glyph unicode="o" horiz-adv-x="1150" d="M76 528q0 154 56.5 279t171.5 202.5t271 77.5t271.5 -77.5t172 -202.5t56.5 -279t-56.5 -279t-172 -202.5t-271.5 -77.5t-271 77.5t-171.5 202.5t-56.5 279zM205 528q0 -85 24 -164.5t68.5 -144t116.5 -103t161 -38.5t161 38.5t117 103t69 144t24 164.5t-24 164.5 t-69 144t-117 103.5t-161 39t-161 -39t-116.5 -103.5t-68.5 -144t-24 -164.5z" />
<glyph unicode="p" horiz-adv-x="1187" d="M129 -391v1448h119v-201h4q44 108 145.5 169.5t231.5 61.5q117 0 209.5 -44.5t149.5 -122.5t86.5 -177.5t29.5 -214.5t-29.5 -214.5t-86.5 -177.5t-149.5 -122.5t-209.5 -44.5q-123 0 -225 60.5t-142 171.5h-4v-592h-129zM258 528q0 -86 20.5 -163.5t62.5 -143 t116 -104.5t172 -39q71 0 130 26t98.5 69.5t66.5 102t39 121.5t12 131t-12 131.5t-39 122t-66.5 102t-98.5 69.5t-130 26q-104 0 -178.5 -36t-115 -100.5t-59 -142t-18.5 -172.5z" />
<glyph unicode="q" horiz-adv-x="1187" d="M84 528q0 115 29.5 214.5t86.5 177.5t149.5 122.5t209.5 44.5q119 0 228 -64.5t149 -166.5h4v201h119v-1448h-129v592h-4q-40 -111 -142 -171.5t-225 -60.5q-117 0 -209.5 44.5t-149.5 122.5t-86.5 177.5t-29.5 214.5zM213 528q0 -68 12 -131t39 -121.5t66.5 -102 t98.5 -69.5t130 -26q98 0 172 39t116 104.5t62.5 143t20.5 163.5t-20.5 163.5t-62.5 143.5t-116 105t-172 39q-71 0 -130 -26t-98.5 -69.5t-66.5 -102t-39 -122t-12 -131.5z" />
<glyph unicode="r" horiz-adv-x="657" d="M129 0v1057h119v-248h4q50 130 154 199q96 63 223 63h22v-129h-21q-158 0 -262 -102q-110 -109 -110 -277v-563h-129z" />
<glyph unicode="s" horiz-adv-x="997" d="M70 342h129q7 -127 92.5 -195.5t218.5 -68.5q68 0 130.5 18.5t110.5 66t48 116.5q0 44 -18.5 77t-55 55t-71.5 34.5t-87 25.5l-166 37q-70 18 -118.5 38t-91 52t-64 80t-21.5 113q0 77 35.5 136.5t94.5 93t127 50t141 16.5q167 0 273.5 -86.5t113.5 -252.5h-129 q-4 114 -81.5 172.5t-195.5 58.5q-46 0 -88 -9.5t-79 -29.5t-59.5 -57t-22.5 -86q0 -32 14.5 -59.5t36 -45.5t53.5 -33.5t57.5 -24t57.5 -16.5l172 -38q58 -9 109.5 -30t95.5 -55.5t70 -88t26 -119.5q0 -82 -38 -145.5t-101 -100t-135 -54.5t-150 -18q-192 0 -304.5 91.5 t-129.5 281.5z" />
<glyph unicode="t" horiz-adv-x="618" d="M20 948v109h185v317h129v-317h215v-109h-215v-712q0 -71 20 -103.5t84 -36.5q56 0 111 6v-110q-19 0 -57 -2t-58 -2q-130 0 -180 52q-49 50 -49 180v5v723h-185z" />
<glyph unicode="u" horiz-adv-x="1112" d="M127 371v686h129v-688q5 -148 69.5 -219.5t213.5 -71.5q64 0 117.5 23.5t90 63.5t61.5 94.5t36.5 115.5t11.5 127v555h129v-1057h-119v190h-4q-51 -105 -147.5 -163t-216.5 -58q-371 0 -371 402z" />
<glyph unicode="v" horiz-adv-x="960" d="M10 1057h144l331 -928h4l328 928h133l-395 -1057h-137z" />
<glyph unicode="w" horiz-adv-x="1529" d="M23 1057h137l270 -905h4l258 905h146l258 -905h4l270 905h137l-340 -1057h-141l-260 889h-4l-258 -889h-142z" />
<glyph unicode="x" horiz-adv-x="997" d="M8 0l410 549l-379 508h162l301 -402l295 402h161l-380 -506l411 -551h-164l-331 444l-326 -444h-160z" />
<glyph unicode="y" horiz-adv-x="960" d="M10 1057h137l349 -901l325 901h129l-458 -1219q-31 -73 -53 -112t-54 -68.5t-71 -39t-101 -9.5q-78 3 -98 10v109q57 -11 88 -11q28 0 50 4.5t40 18t28.5 22.5t25 35.5t19.5 38t21 47.5l45 121z" />
<glyph unicode="z" horiz-adv-x="960" d="M37 0v104l690 844h-643v109h807v-92l-698 -856h727v-109h-883z" />
<glyph unicode="{" horiz-adv-x="706" d="M182 496v108q148 0 148 328v305q0 118 47.5 187t132.5 69h102v-109h-41q-57 0 -84.5 -59.5t-27.5 -150.5v-289q0 -78 -18 -143t-45 -103t-46 -57.5t-35 -28.5v-4q16 -9 35 -28.5t46 -57.5t45 -103t18 -143v-289q0 -59 10.5 -104.5t36.5 -76t65 -30.5h41v-108h-102 q-85 0 -132.5 69t-47.5 187v303q0 328 -148 328z" />
<glyph unicode="|" horiz-adv-x="479" d="M186 -438v2048h109v-2048h-109z" />
<glyph unicode="}" horiz-adv-x="706" d="M94 -283h41q58 0 85.5 59.5t27.5 151.5v289q0 64 12.5 119.5t29.5 90.5t39 63t36.5 40t25.5 19v4q-11 7 -25.5 19t-36.5 40t-39 63t-29.5 90.5t-12.5 119.5v289q0 90 -27.5 150t-85.5 60h-41v109h103q85 0 132.5 -69t47.5 -187v-303q0 -328 147 -328v-108 q-147 0 -147 -328v-305q0 -118 -47.5 -187t-132.5 -69h-103v108z" />
<glyph unicode="~" d="M154 461q86 176 256 176q83 0 235 -66q58 -25 80.5 -34.5t59.5 -21t61 -11.5q55 0 95.5 36.5t84.5 104.5l74 -74q-26 -39 -48 -65.5t-53.5 -54.5t-70.5 -42t-84 -14q-55 0 -106 17.5t-120 50.5q-50 23 -74 33t-66 21t-79 11q-107 0 -172 -141z" />
<glyph unicode="&#xa1;" horiz-adv-x="518" d="M174 840v217h172v-217h-172zM190 31l31 661h78l31 -661v-422h-140v422z" />
<glyph unicode="&#xa2;" horiz-adv-x="1163" d="M123 528q0 223 117 379t325 176v183h80v-179q165 -5 275.5 -98.5t130.5 -263.5h-129q-53 245 -277 254v-901q110 4 191.5 90t93.5 211h129q-25 -185 -135.5 -294.5t-278.5 -115.5v-207h-80v209q-139 13 -241 93t-151.5 200t-49.5 264zM252 528q0 -106 33 -199.5t106 -163 t174 -85.5v895q-101 -16 -174 -84.5t-106 -162t-33 -200.5z" />
<glyph unicode="&#xa3;" horiz-adv-x="1163" d="M100 80q108 89 169 179t61 202q0 48 -17 111t-41 104h-166v65h130q-113 179 -113 330q0 106 39.5 189t106 132.5t148.5 75t173 25.5q227 0 353.5 -129t121.5 -356h-129q0 171 -89.5 273.5t-256.5 102.5q-90 0 -164.5 -33.5t-124 -108t-49.5 -179.5q0 -64 18 -114 t52.5 -109t50.5 -99h327v-65h-290q22 -35 35.5 -94t13.5 -105q0 -105 -65 -202.5t-161 -170.5l5 -4q118 62 198 62q111 0 209 -41q107 -43 176 -43q63 0 127 32.5t109 82.5l65 -99q-71 -63 -141 -94t-158 -31q-75 0 -146 21t-140 42t-138 21q-25 0 -48 -3.5t-37.5 -7 t-36 -13.5t-31 -15.5t-35.5 -21.5t-37 -23z" />
<glyph unicode="&#xa4;" horiz-adv-x="1163" d="M72 279l116 116q-112 137 -112 314q0 181 110 315l-114 115l78 78l114 -115q134 115 320 115q175 0 313 -113l113 113l77 -78l-110 -111q115 -141 115 -319q0 -179 -115 -320l110 -110l-77 -78l-113 112q-131 -112 -313 -112q-181 0 -320 114l-114 -114zM205 709 q0 -165 110.5 -277.5t268.5 -112.5t268.5 112.5t110.5 277.5t-110.5 277t-268.5 112t-268.5 -112t-110.5 -277z" />
<glyph unicode="&#xa5;" horiz-adv-x="1163" d="M25 1462h147l408 -747l411 747h142l-433 -747h224v-92h-269l-12 -21v-149h281v-93h-281v-360h-129v360h-276v93h276v149l-12 21h-264v92h217z" />
<glyph unicode="&#xa6;" horiz-adv-x="479" d="M186 -182v512h109v-512h-109zM186 842v512h109v-512h-109z" />
<glyph unicode="&#xa7;" horiz-adv-x="1163" d="M104 690q0 97 63 172.5t161 114.5q-103 89 -103 223q0 90 51 158.5t129 101.5t166 33q176 0 277.5 -94.5t101.5 -268.5h-129q5 106 -63 180t-174 74q-96 0 -163 -46t-67 -136q0 -49 24 -92.5t65 -77.5t94 -66t111 -62.5t116.5 -62t111.5 -69.5t94 -80.5t65 -98.5t24 -120 q0 -98 -63 -173t-160 -114q102 -89 102 -223q0 -90 -51 -158.5t-129 -101.5t-166 -33q-176 0 -277.5 94.5t-101.5 268.5h129q-5 -105 63.5 -179.5t174.5 -74.5q95 0 162 46t67 136q0 49 -24 92.5t-65 77.5t-94 66t-111 62.5t-116.5 62t-111.5 69.5t-94 80.5t-65 98.5 t-24 120zM233 694q0 -59 36.5 -113t100 -99t127 -81.5t141.5 -79t120 -71.5q172 72 172 221q0 51 -28 99.5t-70 84.5t-102 74t-114 65.5t-116 61.5t-99 59q-168 -70 -168 -221z" />
<glyph unicode="&#xa8;" horiz-adv-x="403" d="M-49 1249v207h139v-207h-139zM313 1249v207h140v-207h-140z" />
<glyph unicode="&#xa9;" horiz-adv-x="1662" d="M70 731q0 158 58.5 299t159.5 242.5t242.5 161t300.5 59.5t300.5 -59.5t242.5 -161t160 -242.5t59 -299t-59 -299t-160 -242.5t-242.5 -161t-300.5 -59.5t-300.5 59.5t-242.5 161t-159.5 242.5t-58.5 299zM188 731q0 -181 82.5 -330t230.5 -236t330 -87q135 0 255 51 t205 138.5t134.5 208t49.5 255.5t-49.5 255.5t-134.5 208t-205 138.5t-255 51q-182 0 -330 -87t-230.5 -236t-82.5 -330zM406 731q0 207 119.5 338t324.5 131q149 0 254 -82t125 -227h-105q-19 95 -91 155.5t-181 61.5q-161 0 -249.5 -105.5t-88.5 -271.5t88.5 -271.5 t249.5 -105.5q109 0 180.5 60.5t91.5 156.5h105q-20 -145 -125 -227t-254 -82q-205 0 -324.5 131t-119.5 338z" />
<glyph unicode="&#xaa;" horiz-adv-x="661" d="M2 950q0 44 11.5 78t42.5 56t52.5 35.5t76.5 23t77 12t89 8.5q13 1 20 2q60 7 84 19t24 45q0 137 -180 137q-76 0 -125.5 -36.5t-50.5 -106.5h-96q6 114 81 168.5t205 54.5q56 0 99 -8.5t82 -30t60 -63.5t21 -103v-352q3 -47 52 -47q14 0 26 6v-70q-42 -6 -55 -6 q-59 0 -78.5 27t-19.5 88h-4q-83 -133 -252 -133q-111 0 -176.5 48t-65.5 148zM98 954q0 -52 45 -86t97 -34q99 0 169 53t70 141v96h-4q-3 -6 -11.5 -11t-16.5 -7.5t-22.5 -5.5t-18.5 -4q-27 -5 -69 -11t-65.5 -10t-55.5 -11t-50 -15.5t-35.5 -21t-25 -31t-7.5 -42.5z" />
<glyph unicode="&#xab;" horiz-adv-x="897" d="M135 500v127l273 256v-138l-193 -182l193 -182v-137zM465 500v127l272 256v-138l-192 -182l192 -182v-137z" />
<glyph unicode="&#xac;" d="M113 666v108h1030v-547h-109v439h-921z" />
<glyph unicode="&#xad;" horiz-adv-x="782" d="M135 504v119h512v-119h-512z" />
<glyph unicode="&#xae;" horiz-adv-x="1662" d="M70 731q0 158 58.5 299t159.5 242.5t242.5 161t300.5 59.5t300.5 -59.5t242.5 -161t160 -242.5t59 -299t-59 -299t-160 -242.5t-242.5 -161t-300.5 -59.5t-300.5 59.5t-242.5 161t-159.5 242.5t-58.5 299zM188 731q0 -181 82.5 -330t230.5 -236t330 -87q135 0 255 51 t205 138.5t134.5 208t49.5 255.5t-49.5 255.5t-134.5 208t-205 138.5t-255 51q-182 0 -330 -87t-230.5 -236t-82.5 -330zM555 291v880h338q287 0 287 -243q0 -204 -222 -246l263 -391h-127l-248 391h-182v-391h-109zM664 774h143q42 0 67 1t60 5.5t56 14.5t41.5 26.5 t30 43.5t9.5 63q0 151 -209 151h-198v-305z" />
<glyph unicode="&#xaf;" horiz-adv-x="403" d="M-135 1307v92h674v-92h-674z" />
<glyph unicode="&#xb0;" horiz-adv-x="843" d="M127 1151q0 122 85.5 208.5t209.5 86.5q122 0 208.5 -87t86.5 -208q0 -124 -86.5 -209.5t-208.5 -85.5q-124 0 -209.5 85t-85.5 210zM207 1151q0 -91 62 -153t153 -62q90 0 152.5 62.5t62.5 152.5q0 89 -63 152t-152 63q-90 0 -152.5 -62.5t-62.5 -152.5z" />
<glyph unicode="&#xb1;" d="M113 0v109h1030v-109h-1030zM115 553v109h458v368h109v-368h461v-109h-461v-369h-109v369h-458z" />
<glyph unicode="&#xb2;" horiz-adv-x="706" d="M43 561q2 75 33 136t83.5 104.5t106.5 77.5t120 76t106 79q41 40 60 76.5t19 87.5q0 77 -61.5 122.5t-149.5 45.5q-105 0 -153.5 -66t-48.5 -167h-97q-5 145 73.5 229t234.5 84q135 0 217 -65t82 -191q0 -52 -19 -97.5t-55 -83.5t-73 -65.5t-89 -58.5 q-18 -12 -58.5 -34.5t-69 -41t-62.5 -44t-56.5 -57.5t-31.5 -67h508v-80h-619z" />
<glyph unicode="&#xb3;" horiz-adv-x="706" d="M29 844h96q-5 -99 56 -160t169 -61q94 0 165 50.5t71 133.5t-64 127.5t-162 44.5h-71v80h71q74 0 132.5 39.5t58.5 111.5q0 75 -58 115.5t-143 40.5q-98 0 -152.5 -58.5t-52.5 -152.5h-96q2 132 81.5 211.5t219.5 79.5q80 0 145.5 -23t108.5 -75.5t43 -128.5 q0 -72 -41.5 -123t-116.5 -68v-4q92 -12 142.5 -68t50.5 -143q0 -127 -94 -198.5t-236 -71.5q-156 0 -244.5 79t-78.5 222z" />
<glyph unicode="&#xb4;" horiz-adv-x="403" d="M80 1208l215 289h160l-271 -289h-104z" />
<glyph unicode="&#xb5;" horiz-adv-x="1124" d="M133 -391v1448h129v-688q5 -148 69.5 -219.5t213.5 -71.5q64 0 117.5 23.5t90 63.5t61.5 94.5t36.5 115.5t11.5 127v555h129v-1057h-119v190h-4q-51 -105 -147.5 -163t-216.5 -58q-143 0 -240 72v-432h-131z" />
<glyph unicode="&#xb6;" d="M147 1061q0 194 119.5 297.5t337.5 103.5h471v-1824h-129v1716h-246v-1716h-129v1034q-179 0 -301.5 114t-122.5 275z" />
<glyph unicode="&#xb7;" horiz-adv-x="593" d="M176 649q0 47 37 83t84 36q49 0 85 -36.5t36 -86.5q0 -47 -37 -83t-84 -36q-49 0 -85 36.5t-36 86.5z" />
<glyph unicode="&#xb8;" horiz-adv-x="403" d="M0 -373l29 66q73 -29 161 -29q47 0 78 22t31 66q0 35 -25.5 56.5t-62.5 21.5q-68 0 -105 -16l-32 30l125 156h71l-90 -111q49 10 103 7q22 -3 43 -11.5t43 -23.5t35.5 -41t13.5 -60q0 -85 -68.5 -130.5t-156.5 -45.5q-111 0 -193 43z" />
<glyph unicode="&#xb9;" horiz-adv-x="706" d="M84 1196v80q32 1 47.5 2t41.5 3t39 5.5t32.5 8.5t30 12.5t24 19t21 25.5t15 33t11.5 42h82v-866h-96v635h-248z" />
<glyph unicode="&#xba;" horiz-adv-x="708" d="M18 1100q0 150 86.5 248t239.5 98q167 0 256.5 -97t89.5 -249t-89.5 -249t-256.5 -97q-153 0 -239.5 98t-86.5 248zM115 1100q0 -68 26 -127t82 -99t131 -40q112 0 176 80t64 186t-64 186t-176 80q-75 0 -131 -40t-82 -99t-26 -127z" />
<glyph unicode="&#xbb;" horiz-adv-x="897" d="M160 244v137l192 182l-192 182v138l272 -256v-127zM489 244v137l193 182l-193 182v138l273 -256v-127z" />
<glyph unicode="&#xbc;" horiz-adv-x="1732" d="M111 1196v80q32 1 47.5 2t41.5 3t39 5.5t32.5 8.5t30 12.5t24 19t21 25.5t15 33t11.5 42h82v-866h-97v635h-247zM285 -70l927 1555h97l-926 -1555h-98zM897 205v80l436 581h90v-581h140v-80h-140v-205h-96v205h-430zM991 285h336v442h-4z" />
<glyph unicode="&#xbd;" horiz-adv-x="1732" d="M111 1196v80q32 1 47.5 2t41.5 3t39 5.5t32.5 8.5t30 12.5t24 19t21 25.5t15 33t11.5 42h82v-866h-97v635h-247zM285 -70l927 1555h97l-926 -1555h-98zM995 0q2 75 33 136t83.5 104.5t106.5 77.5t120 76t106 79q41 40 60.5 76.5t19.5 87.5q0 77 -61.5 122.5t-149.5 45.5 q-105 0 -154 -66.5t-49 -167.5h-96q-5 145 73 229.5t234 84.5q135 0 217 -65t82 -191q0 -52 -19 -97.5t-55 -83.5t-73 -65.5t-89 -58.5q-18 -12 -58.5 -34.5t-69 -41t-62.5 -44t-56.5 -57.5t-31.5 -67h508v-80h-619z" />
<glyph unicode="&#xbe;" horiz-adv-x="1732" d="M29 844h96q-5 -99 56 -160t169 -61q94 0 165 50.5t71 133.5t-64 127.5t-162 44.5h-71v80h71q74 0 132.5 39.5t58.5 111.5q0 75 -58 115.5t-143 40.5q-98 0 -152.5 -58.5t-52.5 -152.5h-96q2 132 81.5 211.5t219.5 79.5q80 0 145.5 -23t108.5 -75.5t43 -128.5 q0 -72 -41.5 -123t-116.5 -68v-4q92 -12 142.5 -68t50.5 -143q0 -127 -94 -198.5t-236 -71.5q-156 0 -244.5 79t-78.5 222zM367 -70l927 1555h97l-926 -1555h-98zM897 205v80l436 581h90v-581h140v-80h-140v-205h-96v205h-430zM991 285h336v442h-4z" />
<glyph unicode="&#xbf;" horiz-adv-x="1124" d="M123 -43q0 107 45 186t133 162q21 21 51 50.5t42 40.5t31 33t25 31.5t16 31.5t12.5 37t6.5 44.5t5 58t2 73.5h129q1 -48 -0.5 -86.5t-10 -73.5t-15.5 -60t-26 -55t-31.5 -48t-43 -49.5t-49 -49t-60.5 -56.5q-133 -126 -133 -264q0 -120 86 -198t207 -78q161 0 247.5 104 t81.5 268h130q0 -221 -123 -351t-342 -130q-176 0 -296 103t-120 276zM469 840v217h172v-217h-172z" />
<glyph unicode="&#xc0;" horiz-adv-x="1286" d="M-16 0l589 1462h156l574 -1462h-150l-178 455h-666l-176 -455h-149zM352 573h576l-283 750zM356 1882h160l215 -289h-104z" />
<glyph unicode="&#xc1;" horiz-adv-x="1286" d="M-16 0l589 1462h156l574 -1462h-150l-178 455h-666l-176 -455h-149zM352 573h576l-283 750zM573 1597l215 289h160l-270 -289h-105z" />
<glyph unicode="&#xc2;" horiz-adv-x="1286" d="M-16 0l589 1462h156l574 -1462h-150l-178 455h-666l-176 -455h-149zM342 1595l233 289h142l233 -289h-133l-176 209l-180 -209h-119zM352 573h576l-283 750z" />
<glyph unicode="&#xc3;" horiz-adv-x="1286" d="M-16 0l589 1462h156l574 -1462h-150l-178 455h-666l-176 -455h-149zM326 1638q8 78 57.5 137.5t124.5 59.5q50 0 103 -22.5t97.5 -45t75.5 -22.5q78 0 107 98h78q-14 -80 -58.5 -137t-119.5 -57q-48 0 -102 23.5t-101.5 47t-79.5 23.5q-77 0 -102 -105h-80zM352 573h576 l-283 750z" />
<glyph unicode="&#xc4;" horiz-adv-x="1286" d="M-16 0l589 1462h156l574 -1462h-150l-178 455h-666l-176 -455h-149zM352 573h576l-283 750zM395 1638v207h140v-207h-140zM758 1638v207h139v-207h-139z" />
<glyph unicode="&#xc5;" horiz-adv-x="1286" d="M-16 0l589 1462h156l574 -1462h-150l-178 455h-666l-176 -455h-149zM352 573h576l-283 750zM430 1761q0 91 64 155t155 64t155 -64t64 -155t-64 -155t-155 -64t-155 64t-64 155zM510 1761q0 -60 39.5 -99.5t99.5 -39.5t99.5 39.5t39.5 99.5t-39.5 100t-99.5 40t-99.5 -40 t-39.5 -100z" />
<glyph unicode="&#xc6;" horiz-adv-x="1853" d="M-16 0l766 1462h1050v-119h-751v-528h704v-119h-704v-577h759v-119h-899v463h-530l-238 -463h-157zM440 582h469v761h-82z" />
<glyph unicode="&#xc7;" horiz-adv-x="1437" d="M76 731q0 122 27 233.5t83.5 208t137 167.5t194 112t248.5 41q142 0 267 -53.5t213.5 -163t107.5 -256.5h-140q-36 165 -160 259.5t-288 94.5q-112 0 -205.5 -36.5t-156.5 -98t-106.5 -144.5t-63 -174.5t-19.5 -189.5t19.5 -189.5t63 -174.5t106.5 -144.5t156.5 -98 t205.5 -36.5q131 0 234.5 63.5t162 168.5t72.5 237h139q-29 -272 -191 -430t-417 -158h-2l-66 -80q49 10 103 7q22 -3 43 -11.5t43 -23.5t35.5 -41t13.5 -60q0 -85 -68.5 -130.5t-156.5 -45.5q-111 0 -193 43l29 66q73 -29 162 -29q47 0 77.5 22t30.5 66q0 35 -25.5 56.5 t-62.5 21.5q-67 0 -104 -16l-33 30l102 129q-123 9 -231 58q-189 93 -288 279.5t-99 420.5z" />
<glyph unicode="&#xc8;" horiz-adv-x="1249" d="M145 0v1462h1010v-119h-870v-528h815v-119h-815v-577h880v-119h-1020zM375 1882h160l215 -289h-105z" />
<glyph unicode="&#xc9;" horiz-adv-x="1249" d="M145 0v1462h1010v-119h-870v-528h815v-119h-815v-577h880v-119h-1020zM571 1597l215 289h160l-270 -289h-105z" />
<glyph unicode="&#xca;" horiz-adv-x="1249" d="M145 0v1462h1010v-119h-870v-528h815v-119h-815v-577h880v-119h-1020zM350 1595l234 289h141l233 -289h-133l-176 209l-180 -209h-119z" />
<glyph unicode="&#xcb;" horiz-adv-x="1249" d="M145 0v1462h1010v-119h-870v-528h815v-119h-815v-577h880v-119h-1020zM397 1638v207h140v-207h-140zM760 1638v207h139v-207h-139z" />
<glyph unicode="&#xcc;" horiz-adv-x="450" d="M-80 1882h160l215 -289h-105zM156 0v1462h139v-1462h-139z" />
<glyph unicode="&#xcd;" horiz-adv-x="450" d="M156 0v1462h139v-1462h-139zM156 1597l215 289h159l-270 -289h-104z" />
<glyph unicode="&#xce;" horiz-adv-x="450" d="M-78 1595l234 289h141l233 -289h-133l-176 209l-180 -209h-119zM156 0v1462h139v-1462h-139z" />
<glyph unicode="&#xcf;" horiz-adv-x="450" d="M-25 1638v207h140v-207h-140zM156 0v1462h139v-1462h-139zM338 1638v207h139v-207h-139z" />
<glyph unicode="&#xd0;" horiz-adv-x="1398" d="M-2 713v92h147v657h506q672 -15 672 -731t-672 -731h-506v713h-147zM285 119h297q317 0 459.5 143t142.5 469t-142.5 469t-459.5 143h-297v-538h483v-92h-483v-594z" />
<glyph unicode="&#xd1;" horiz-adv-x="1437" d="M143 0v1462h156l852 -1237h4v1237h139v-1462h-155l-852 1237h-4v-1237h-140zM412 1638q8 78 57.5 137.5t124.5 59.5q50 0 103 -22.5t97.5 -45t75.5 -22.5q78 0 107 98h78q-14 -80 -58.5 -137t-119.5 -57q-48 0 -102 23.5t-101.5 47t-79.5 23.5q-77 0 -102 -105h-80z" />
<glyph unicode="&#xd2;" horiz-adv-x="1513" d="M68 731q0 122 27 233.5t83.5 208t137 167.5t194 112t248.5 41q134 0 247.5 -41t193.5 -112t136.5 -167.5t83.5 -208t27 -233.5t-27 -233.5t-83.5 -208t-136.5 -167.5t-193.5 -112t-247.5 -41q-135 0 -248.5 41t-194 112t-137 167.5t-83.5 208t-27 233.5zM207 731 q0 -98 19.5 -189.5t63 -174.5t106.5 -144.5t156.5 -98t205.5 -36.5t204.5 36.5t155.5 98t106.5 144.5t63 174.5t19.5 189.5t-19.5 189.5t-63 174.5t-106.5 144.5t-155.5 98t-204.5 36.5t-205.5 -36.5t-156.5 -98t-106.5 -144.5t-63 -174.5t-19.5 -189.5zM487 1882h160 l215 -289h-104z" />
<glyph unicode="&#xd3;" horiz-adv-x="1513" d="M68 731q0 122 27 233.5t83.5 208t137 167.5t194 112t248.5 41q134 0 247.5 -41t193.5 -112t136.5 -167.5t83.5 -208t27 -233.5t-27 -233.5t-83.5 -208t-136.5 -167.5t-193.5 -112t-247.5 -41q-135 0 -248.5 41t-194 112t-137 167.5t-83.5 208t-27 233.5zM207 731 q0 -98 19.5 -189.5t63 -174.5t106.5 -144.5t156.5 -98t205.5 -36.5t204.5 36.5t155.5 98t106.5 144.5t63 174.5t19.5 189.5t-19.5 189.5t-63 174.5t-106.5 144.5t-155.5 98t-204.5 36.5t-205.5 -36.5t-156.5 -98t-106.5 -144.5t-63 -174.5t-19.5 -189.5zM705 1597l215 289 h159l-270 -289h-104z" />
<glyph unicode="&#xd4;" horiz-adv-x="1513" d="M68 731q0 122 27 233.5t83.5 208t137 167.5t194 112t248.5 41q134 0 247.5 -41t193.5 -112t136.5 -167.5t83.5 -208t27 -233.5t-27 -233.5t-83.5 -208t-136.5 -167.5t-193.5 -112t-247.5 -41q-135 0 -248.5 41t-194 112t-137 167.5t-83.5 208t-27 233.5zM207 731 q0 -98 19.5 -189.5t63 -174.5t106.5 -144.5t156.5 -98t205.5 -36.5t204.5 36.5t155.5 98t106.5 144.5t63 174.5t19.5 189.5t-19.5 189.5t-63 174.5t-106.5 144.5t-155.5 98t-204.5 36.5t-205.5 -36.5t-156.5 -98t-106.5 -144.5t-63 -174.5t-19.5 -189.5zM457 1595l233 289 h141l234 -289h-133l-176 209l-181 -209h-118z" />
<glyph unicode="&#xd5;" horiz-adv-x="1513" d="M68 731q0 122 27 233.5t83.5 208t137 167.5t194 112t248.5 41q134 0 247.5 -41t193.5 -112t136.5 -167.5t83.5 -208t27 -233.5t-27 -233.5t-83.5 -208t-136.5 -167.5t-193.5 -112t-247.5 -41q-135 0 -248.5 41t-194 112t-137 167.5t-83.5 208t-27 233.5zM207 731 q0 -98 19.5 -189.5t63 -174.5t106.5 -144.5t156.5 -98t205.5 -36.5t204.5 36.5t155.5 98t106.5 144.5t63 174.5t19.5 189.5t-19.5 189.5t-63 174.5t-106.5 144.5t-155.5 98t-204.5 36.5t-205.5 -36.5t-156.5 -98t-106.5 -144.5t-63 -174.5t-19.5 -189.5zM438 1638 q8 78 58 137.5t125 59.5q50 0 103 -22.5t97.5 -45t75.5 -22.5q78 0 107 98h77q-14 -80 -58.5 -137t-119.5 -57q-48 0 -101.5 23.5t-101 47t-79.5 23.5q-78 0 -103 -105h-80z" />
<glyph unicode="&#xd6;" horiz-adv-x="1513" d="M68 731q0 122 27 233.5t83.5 208t137 167.5t194 112t248.5 41q134 0 247.5 -41t193.5 -112t136.5 -167.5t83.5 -208t27 -233.5t-27 -233.5t-83.5 -208t-136.5 -167.5t-193.5 -112t-247.5 -41q-135 0 -248.5 41t-194 112t-137 167.5t-83.5 208t-27 233.5zM207 731 q0 -98 19.5 -189.5t63 -174.5t106.5 -144.5t156.5 -98t205.5 -36.5t204.5 36.5t155.5 98t106.5 144.5t63 174.5t19.5 189.5t-19.5 189.5t-63 174.5t-106.5 144.5t-155.5 98t-204.5 36.5t-205.5 -36.5t-156.5 -98t-106.5 -144.5t-63 -174.5t-19.5 -189.5zM502 1638v207h139 v-207h-139zM864 1638v207h140v-207h-140z" />
<glyph unicode="&#xd7;" d="M164 127l385 387l-385 387l76 76l387 -387l387 387l76 -76l-388 -387l388 -387l-76 -76l-387 385l-387 -385z" />
<glyph unicode="&#xd8;" horiz-adv-x="1513" d="M68 731q0 122 27 233.5t83.5 208t137 167.5t194 112t248.5 41q288 0 471 -180l145 160l53 -48l-149 -165q168 -203 168 -529q0 -122 -27 -233.5t-83.5 -208t-136.5 -167.5t-193.5 -112t-247.5 -41q-290 0 -473 183l-156 -177l-55 52l162 180q-168 206 -168 524zM207 731 q0 -254 119 -424l815 907q-147 160 -383 160q-112 0 -205.5 -36.5t-156.5 -98t-106.5 -144.5t-63 -174.5t-19.5 -189.5zM373 250q146 -162 385 -162q112 0 204.5 36.5t155.5 98t106.5 144.5t63 174.5t19.5 189.5q0 257 -121 426z" />
<glyph unicode="&#xd9;" horiz-adv-x="1398" d="M131 526v936h139v-905q0 -246 109 -357.5t319 -111.5q211 0 320.5 111.5t109.5 357.5v905h140v-936q0 -92 -20 -173.5t-63.5 -152.5t-109 -122t-162 -80t-215.5 -29q-118 0 -213.5 29t-160.5 80t-109 122t-64 152.5t-20 173.5zM436 1882h160l215 -289h-104z" />
<glyph unicode="&#xda;" horiz-adv-x="1398" d="M131 526v936h139v-905q0 -246 109 -357.5t319 -111.5q211 0 320.5 111.5t109.5 357.5v905h140v-936q0 -92 -20 -173.5t-63.5 -152.5t-109 -122t-162 -80t-215.5 -29q-118 0 -213.5 29t-160.5 80t-109 122t-64 152.5t-20 173.5zM641 1597l215 289h160l-271 -289h-104z" />
<glyph unicode="&#xdb;" horiz-adv-x="1398" d="M131 526v936h139v-905q0 -246 109 -357.5t319 -111.5q211 0 320.5 111.5t109.5 357.5v905h140v-936q0 -92 -20 -173.5t-63.5 -152.5t-109 -122t-162 -80t-215.5 -29q-118 0 -213.5 29t-160.5 80t-109 122t-64 152.5t-20 173.5zM395 1595l234 289h141l234 -289h-134 l-176 209l-180 -209h-119z" />
<glyph unicode="&#xdc;" horiz-adv-x="1398" d="M131 526v936h139v-905q0 -246 109 -357.5t319 -111.5q211 0 320.5 111.5t109.5 357.5v905h140v-936q0 -92 -20 -173.5t-63.5 -152.5t-109 -122t-162 -80t-215.5 -29q-118 0 -213.5 29t-160.5 80t-109 122t-64 152.5t-20 173.5zM449 1638v207h139v-207h-139zM811 1638v207 h139v-207h-139z" />
<glyph unicode="&#xdd;" horiz-adv-x="1247" d="M-23 1462h166l482 -741l479 741h166l-578 -860v-602h-139v602zM567 1597l215 289h160l-270 -289h-105z" />
<glyph unicode="&#xde;" horiz-adv-x="1286" d="M145 0v1462h140v-239h510q199 0 316.5 -111t117.5 -307t-117.5 -307t-316.5 -111h-510v-387h-140zM285 506h479q151 0 238.5 75.5t87.5 223.5t-87.5 223.5t-238.5 75.5h-479v-598z" />
<glyph unicode="&#xdf;" horiz-adv-x="1124" d="M137 0v1096q0 196 109.5 296.5t298.5 100.5q172 0 286.5 -96t114.5 -264q0 -113 -61.5 -198.5t-169.5 -109.5v-4q96 -8 166.5 -64t104.5 -138t34 -177q0 -218 -125.5 -335.5t-329.5 -122.5h-51q-15 0 -51 4v112q44 -8 96 -8q66 0 123.5 18.5t105 56t75.5 102.5t28 151 q0 84 -21 144t-56.5 96.5t-92 58t-116.5 28.5t-142 7v108q57 0 106 7t96 26t79.5 48t52.5 76.5t20 108.5q0 113 -78.5 184.5t-191.5 71.5q-150 0 -215.5 -74t-65.5 -225v-1085h-129z" />
<glyph unicode="&#xe0;" horiz-adv-x="1075" d="M72 279q0 184 158 258q92 44 299 68q18 3 53 6q38 5 57 7q89 8 127.5 36t38.5 108q0 63 -21 107t-60.5 67t-86.5 33t-109 10q-127 0 -202.5 -61t-79.5 -185h-129q10 180 123.5 267t304.5 87q389 0 389 -339v-562q0 -77 76 -77q22 0 41 8v-109q-41 -8 -84 -8 q-91 0 -121.5 45.5t-30.5 138.5h-4q-37 -56 -70.5 -92t-78.5 -66t-103 -43.5t-133 -13.5q-101 0 -179.5 32t-126.5 103.5t-48 174.5zM201 287q0 -93 69.5 -151t165.5 -58q155 0 262 91t107 241v168h-4q-17 -32 -109 -48q-33 -6 -83.5 -13.5t-86 -12.5t-81.5 -14t-77.5 -19 t-64.5 -27t-53 -38t-32.5 -51.5t-12.5 -67.5zM264 1493h160l215 -289h-104z" />
<glyph unicode="&#xe1;" horiz-adv-x="1075" d="M72 279q0 184 158 258q92 44 299 68q18 3 53 6q38 5 57 7q89 8 127.5 36t38.5 108q0 63 -21 107t-60.5 67t-86.5 33t-109 10q-127 0 -202.5 -61t-79.5 -185h-129q10 180 123.5 267t304.5 87q389 0 389 -339v-562q0 -77 76 -77q22 0 41 8v-109q-41 -8 -84 -8 q-91 0 -121.5 45.5t-30.5 138.5h-4q-37 -56 -70.5 -92t-78.5 -66t-103 -43.5t-133 -13.5q-101 0 -179.5 32t-126.5 103.5t-48 174.5zM201 287q0 -93 69.5 -151t165.5 -58q155 0 262 91t107 241v168h-4q-17 -32 -109 -48q-33 -6 -83.5 -13.5t-86 -12.5t-81.5 -14t-77.5 -19 t-64.5 -27t-53 -38t-32.5 -51.5t-12.5 -67.5zM471 1208l215 289h160l-271 -289h-104z" />
<glyph unicode="&#xe2;" horiz-adv-x="1075" d="M72 279q0 184 158 258q92 44 299 68q18 3 53 6q38 5 57 7q89 8 127.5 36t38.5 108q0 63 -21 107t-60.5 67t-86.5 33t-109 10q-127 0 -202.5 -61t-79.5 -185h-129q10 180 123.5 267t304.5 87q389 0 389 -339v-562q0 -77 76 -77q22 0 41 8v-109q-41 -8 -84 -8 q-91 0 -121.5 45.5t-30.5 138.5h-4q-37 -56 -70.5 -92t-78.5 -66t-103 -43.5t-133 -13.5q-101 0 -179.5 32t-126.5 103.5t-48 174.5zM201 287q0 -93 69.5 -151t165.5 -58q155 0 262 91t107 241v168h-4q-17 -32 -109 -48q-33 -6 -83.5 -13.5t-86 -12.5t-81.5 -14t-77.5 -19 t-64.5 -27t-53 -38t-32.5 -51.5t-12.5 -67.5zM233 1206l234 289h141l234 -289h-133l-177 209l-180 -209h-119z" />
<glyph unicode="&#xe3;" horiz-adv-x="1075" d="M72 279q0 184 158 258q92 44 299 68q18 3 53 6q38 5 57 7q89 8 127.5 36t38.5 108q0 63 -21 107t-60.5 67t-86.5 33t-109 10q-127 0 -202.5 -61t-79.5 -185h-129q10 180 123.5 267t304.5 87q389 0 389 -339v-562q0 -77 76 -77q22 0 41 8v-109q-41 -8 -84 -8 q-91 0 -121.5 45.5t-30.5 138.5h-4q-37 -56 -70.5 -92t-78.5 -66t-103 -43.5t-133 -13.5q-101 0 -179.5 32t-126.5 103.5t-48 174.5zM201 287q0 -93 69.5 -151t165.5 -58q155 0 262 91t107 241v168h-4q-17 -32 -109 -48q-33 -6 -83.5 -13.5t-86 -12.5t-81.5 -14t-77.5 -19 t-64.5 -27t-53 -38t-32.5 -51.5t-12.5 -67.5zM213 1249q8 78 57.5 137.5t124.5 59.5q50 0 103 -22.5t98 -45t76 -22.5q44 0 68 26t38 72h78q-14 -80 -58.5 -137t-119.5 -57q-48 0 -102 23.5t-101.5 47t-79.5 23.5q-77 0 -102 -105h-80z" />
<glyph unicode="&#xe4;" horiz-adv-x="1075" d="M72 279q0 184 158 258q92 44 299 68q18 3 53 6q38 5 57 7q89 8 127.5 36t38.5 108q0 63 -21 107t-60.5 67t-86.5 33t-109 10q-127 0 -202.5 -61t-79.5 -185h-129q10 180 123.5 267t304.5 87q389 0 389 -339v-562q0 -77 76 -77q22 0 41 8v-109q-41 -8 -84 -8 q-91 0 -121.5 45.5t-30.5 138.5h-4q-37 -56 -70.5 -92t-78.5 -66t-103 -43.5t-133 -13.5q-101 0 -179.5 32t-126.5 103.5t-48 174.5zM201 287q0 -93 69.5 -151t165.5 -58q155 0 262 91t107 241v168h-4q-17 -32 -109 -48q-33 -6 -83.5 -13.5t-86 -12.5t-81.5 -14t-77.5 -19 t-64.5 -27t-53 -38t-32.5 -51.5t-12.5 -67.5zM285 1249v207h139v-207h-139zM647 1249v207h139v-207h-139z" />
<glyph unicode="&#xe5;" horiz-adv-x="1075" d="M72 279q0 184 158 258q92 44 299 68q18 3 53 6q38 5 57 7q89 8 127.5 36t38.5 108q0 63 -21 107t-60.5 67t-86.5 33t-109 10q-127 0 -202.5 -61t-79.5 -185h-129q10 180 123.5 267t304.5 87q389 0 389 -339v-562q0 -77 76 -77q22 0 41 8v-109q-41 -8 -84 -8 q-91 0 -121.5 45.5t-30.5 138.5h-4q-37 -56 -70.5 -92t-78.5 -66t-103 -43.5t-133 -13.5q-101 0 -179.5 32t-126.5 103.5t-48 174.5zM201 287q0 -93 69.5 -151t165.5 -58q155 0 262 91t107 241v168h-4q-17 -32 -109 -48q-33 -6 -83.5 -13.5t-86 -12.5t-81.5 -14t-77.5 -19 t-64.5 -27t-53 -38t-32.5 -51.5t-12.5 -67.5zM313 1393q0 91 64 155t155 64t155.5 -64t64.5 -155t-64.5 -155t-155.5 -64t-155 64t-64 155zM393 1393q0 -60 39.5 -100t99.5 -40t100 40t40 100t-40 99.5t-100 39.5t-99.5 -39.5t-39.5 -99.5z" />
<glyph unicode="&#xe6;" horiz-adv-x="1794" d="M72 279q0 184 158 258q92 44 299 68q18 3 53 6q38 5 57 7q89 8 127.5 36t38.5 108q0 63 -21 107t-60.5 67t-86.5 33t-109 10q-127 0 -202.5 -61t-79.5 -185h-129q10 180 123.5 267t304.5 87q60 0 113 -9.5t105.5 -32t88 -68t45.5 -109.5h4q26 71 86.5 121.5t133.5 74 t151 23.5q101 0 180.5 -32.5t131 -87.5t84.5 -132t47 -161t14 -180h-795q-8 -115 26.5 -207.5t116.5 -150.5t201 -58q251 0 313 264h129q-42 -180 -159.5 -276.5t-300.5 -96.5q-142 0 -241.5 67.5t-146.5 199.5h-4q-16 -84 -88 -146.5t-164.5 -91.5t-189.5 -29 q-101 0 -179.5 32t-126.5 103.5t-48 174.5zM201 287q0 -93 69.5 -151t165.5 -58q155 0 262 91t107 241v168h-4q-17 -32 -109 -48q-33 -6 -83.5 -13.5t-86 -12.5t-81.5 -14t-77.5 -19t-64.5 -27t-53 -38t-32.5 -51.5t-12.5 -67.5zM934 602h665q0 153 -92.5 265t-240.5 112 q-154 0 -245.5 -110.5t-86.5 -266.5z" />
<glyph unicode="&#xe7;" horiz-adv-x="1089" d="M76 528q0 154 56.5 279t171.5 202.5t271 77.5q176 0 291 -92t138 -270h-130q-56 254 -299 254q-89 0 -161 -39t-116.5 -103.5t-68.5 -144t-24 -164.5t24 -164.5t68.5 -144t116.5 -103t161 -38.5q119 0 207.5 85.5t100.5 215.5h129q-27 -193 -144 -301 q-115 -106 -282 -109l-66 -80q49 10 103 7q22 -3 43 -11.5t43 -23.5t35.5 -41t13.5 -60q0 -85 -69 -130.5t-157 -45.5q-110 0 -192 43l29 66q72 -29 161 -29q47 0 78 22t31 66q0 35 -25.5 56.5t-62.5 21.5q-68 0 -105 -16l-32 30l102 129q-92 10 -156 41q-136 67 -210 203 t-74 311z" />
<glyph unicode="&#xe8;" horiz-adv-x="1095" d="M76 528q0 86 17 165.5t54.5 151.5t92 125.5t135 85t178.5 31.5t178.5 -33.5t134.5 -90t90 -132.5t50.5 -161t11.5 -176h-813q0 -58 12.5 -115.5t39.5 -112t66.5 -96t99 -67t130.5 -25.5q136 0 218 71.5t114 198.5h129q-43 -186 -154.5 -282.5t-306.5 -96.5 q-122 0 -215.5 44.5t-149.5 122.5t-84 177t-28 215zM205 602h684q-3 99 -42.5 184t-116.5 139t-177 54q-77 0 -140.5 -31.5t-105.5 -85t-67.5 -119.5t-34.5 -141zM279 1493h159l215 -289h-104z" />
<glyph unicode="&#xe9;" horiz-adv-x="1095" d="M76 528q0 86 17 165.5t54.5 151.5t92 125.5t135 85t178.5 31.5t178.5 -33.5t134.5 -90t90 -132.5t50.5 -161t11.5 -176h-813q0 -58 12.5 -115.5t39.5 -112t66.5 -96t99 -67t130.5 -25.5q136 0 218 71.5t114 198.5h129q-43 -186 -154.5 -282.5t-306.5 -96.5 q-122 0 -215.5 44.5t-149.5 122.5t-84 177t-28 215zM205 602h684q-3 99 -42.5 184t-116.5 139t-177 54q-77 0 -140.5 -31.5t-105.5 -85t-67.5 -119.5t-34.5 -141zM485 1208l215 289h160l-270 -289h-105z" />
<glyph unicode="&#xea;" horiz-adv-x="1095" d="M76 528q0 86 17 165.5t54.5 151.5t92 125.5t135 85t178.5 31.5t178.5 -33.5t134.5 -90t90 -132.5t50.5 -161t11.5 -176h-813q0 -58 12.5 -115.5t39.5 -112t66.5 -96t99 -67t130.5 -25.5q136 0 218 71.5t114 198.5h129q-43 -186 -154.5 -282.5t-306.5 -96.5 q-122 0 -215.5 44.5t-149.5 122.5t-84 177t-28 215zM205 602h684q-3 99 -42.5 184t-116.5 139t-177 54q-77 0 -140.5 -31.5t-105.5 -85t-67.5 -119.5t-34.5 -141zM252 1206l233 289h142l233 -289h-133l-176 209l-180 -209h-119z" />
<glyph unicode="&#xeb;" horiz-adv-x="1095" d="M76 528q0 86 17 165.5t54.5 151.5t92 125.5t135 85t178.5 31.5t178.5 -33.5t134.5 -90t90 -132.5t50.5 -161t11.5 -176h-813q0 -58 12.5 -115.5t39.5 -112t66.5 -96t99 -67t130.5 -25.5q136 0 218 71.5t114 198.5h129q-43 -186 -154.5 -282.5t-306.5 -96.5 q-122 0 -215.5 44.5t-149.5 122.5t-84 177t-28 215zM205 602h684q-3 99 -42.5 184t-116.5 139t-177 54q-77 0 -140.5 -31.5t-105.5 -85t-67.5 -119.5t-34.5 -141zM305 1249v207h139v-207h-139zM668 1249v207h139v-207h-139z" />
<glyph unicode="&#xec;" horiz-adv-x="391" d="M-113 1493h160l215 -289h-104zM131 0v1057h129v-1057h-129z" />
<glyph unicode="&#xed;" horiz-adv-x="391" d="M127 1208l215 289h160l-271 -289h-104zM131 0v1057h129v-1057h-129z" />
<glyph unicode="&#xee;" horiz-adv-x="391" d="M-106 1206l233 289h141l234 -289h-133l-176 209l-181 -209h-118zM131 0v1057h129v-1057h-129z" />
<glyph unicode="&#xef;" horiz-adv-x="391" d="M-53 1249v207h139v-207h-139zM131 0v1057h129v-1057h-129zM309 1249v207h140v-207h-140z" />
<glyph unicode="&#xf0;" horiz-adv-x="1163" d="M82 510q0 108 32.5 203t93 167t153.5 114t206 42q196 0 273 -82h4q-95 180 -273 322l-215 -121l-67 66l205 114q-116 76 -191 113l74 72q138 -75 213 -131l233 131l68 -66l-223 -125q184 -149 292.5 -349.5t108.5 -451.5q0 -117 -31 -217t-91 -177t-157.5 -121 t-222.5 -44q-121 0 -214.5 41.5t-152 115.5t-88.5 171.5t-30 212.5zM211 508q0 -86 21 -161.5t63.5 -136.5t113.5 -96.5t164 -35.5q176 0 271.5 119t95.5 315q0 63 -12.5 122t-40.5 113t-69 94t-103 63.5t-137 23.5q-95 0 -167.5 -33.5t-115 -92.5t-63.5 -133t-21 -161z" />
<glyph unicode="&#xf1;" horiz-adv-x="1112" d="M127 0v1057h129v-183h4q37 95 131 154t207 59q109 0 185.5 -27.5t120 -82t62.5 -127t19 -170.5v-680h-129v659q0 71 -13 126.5t-42.5 100.5t-83 69t-129.5 24q-151 0 -239 -101.5t-93 -261.5v-616h-129zM233 1249q8 78 58 137.5t125 59.5q50 0 103 -22.5t97.5 -45 t75.5 -22.5q78 0 107 98h78q-14 -80 -59 -137t-120 -57q-48 0 -101.5 23.5t-101 47t-79.5 23.5q-78 0 -103 -105h-80z" />
<glyph unicode="&#xf2;" horiz-adv-x="1150" d="M76 528q0 154 56.5 279t171.5 202.5t271 77.5t271.5 -77.5t172 -202.5t56.5 -279t-56.5 -279t-172 -202.5t-271.5 -77.5t-271 77.5t-171.5 202.5t-56.5 279zM205 528q0 -85 24 -164.5t68.5 -144t116.5 -103t161 -38.5t161 38.5t117 103t69 144t24 164.5t-24 164.5 t-69 144t-117 103.5t-161 39t-161 -39t-116.5 -103.5t-68.5 -144t-24 -164.5zM305 1493h160l215 -289h-105z" />
<glyph unicode="&#xf3;" horiz-adv-x="1150" d="M76 528q0 154 56.5 279t171.5 202.5t271 77.5t271.5 -77.5t172 -202.5t56.5 -279t-56.5 -279t-172 -202.5t-271.5 -77.5t-271 77.5t-171.5 202.5t-56.5 279zM205 528q0 -85 24 -164.5t68.5 -144t116.5 -103t161 -38.5t161 38.5t117 103t69 144t24 164.5t-24 164.5 t-69 144t-117 103.5t-161 39t-161 -39t-116.5 -103.5t-68.5 -144t-24 -164.5zM514 1208l215 289h160l-271 -289h-104z" />
<glyph unicode="&#xf4;" horiz-adv-x="1150" d="M76 528q0 154 56.5 279t171.5 202.5t271 77.5t271.5 -77.5t172 -202.5t56.5 -279t-56.5 -279t-172 -202.5t-271.5 -77.5t-271 77.5t-171.5 202.5t-56.5 279zM205 528q0 -85 24 -164.5t68.5 -144t116.5 -103t161 -38.5t161 38.5t117 103t69 144t24 164.5t-24 164.5 t-69 144t-117 103.5t-161 39t-161 -39t-116.5 -103.5t-68.5 -144t-24 -164.5zM274 1206l234 289h141l234 -289h-133l-177 209l-180 -209h-119z" />
<glyph unicode="&#xf5;" horiz-adv-x="1150" d="M76 528q0 154 56.5 279t171.5 202.5t271 77.5t271.5 -77.5t172 -202.5t56.5 -279t-56.5 -279t-172 -202.5t-271.5 -77.5t-271 77.5t-171.5 202.5t-56.5 279zM205 528q0 -85 24 -164.5t68.5 -144t116.5 -103t161 -38.5t161 38.5t117 103t69 144t24 164.5t-24 164.5 t-69 144t-117 103.5t-161 39t-161 -39t-116.5 -103.5t-68.5 -144t-24 -164.5zM258 1249q8 78 57.5 137.5t124.5 59.5q50 0 103 -22.5t98 -45t76 -22.5q44 0 68 26t38 72h78q-14 -80 -58.5 -137t-119.5 -57q-48 0 -102 23.5t-101.5 47t-79.5 23.5q-77 0 -102 -105h-80z" />
<glyph unicode="&#xf6;" horiz-adv-x="1150" d="M76 528q0 154 56.5 279t171.5 202.5t271 77.5t271.5 -77.5t172 -202.5t56.5 -279t-56.5 -279t-172 -202.5t-271.5 -77.5t-271 77.5t-171.5 202.5t-56.5 279zM205 528q0 -85 24 -164.5t68.5 -144t116.5 -103t161 -38.5t161 38.5t117 103t69 144t24 164.5t-24 164.5 t-69 144t-117 103.5t-161 39t-161 -39t-116.5 -103.5t-68.5 -144t-24 -164.5zM328 1249v207h139v-207h-139zM690 1249v207h139v-207h-139z" />
<glyph unicode="&#xf7;" d="M113 461v108h1030v-108h-1030zM512 102q0 47 34 81t81 34t80.5 -34t33.5 -81q0 -43 -34 -78.5t-78 -35.5q-48 0 -82.5 33.5t-34.5 80.5zM512 928q0 47 34 80.5t81 33.5t80.5 -33.5t33.5 -80.5q0 -43 -34 -79t-78 -36q-47 0 -82 34t-35 81z" />
<glyph unicode="&#xf8;" horiz-adv-x="1150" d="M66 18l124 138q-114 147 -114 372q0 154 56.5 279t171.5 202.5t271 77.5q219 0 349 -139l106 115l45 -41l-110 -121q110 -155 110 -373q0 -154 -56.5 -279t-172 -202.5t-271.5 -77.5q-214 0 -344 140l-120 -132zM205 528q0 -157 74 -276l559 604q-98 123 -263 123 q-89 0 -161 -39t-116.5 -103.5t-68.5 -144t-24 -164.5zM315 199q96 -121 260 -121q89 0 161 38.5t117 103t69 144t24 164.5q0 157 -72 275z" />
<glyph unicode="&#xf9;" horiz-adv-x="1112" d="M127 371v686h129v-688q5 -148 69.5 -219.5t213.5 -71.5q64 0 117.5 23.5t90 63.5t61.5 94.5t36.5 115.5t11.5 127v555h129v-1057h-119v190h-4q-51 -105 -147.5 -163t-216.5 -58q-371 0 -371 402zM297 1493h160l215 -289h-105z" />
<glyph unicode="&#xfa;" horiz-adv-x="1112" d="M127 371v686h129v-688q5 -148 69.5 -219.5t213.5 -71.5q64 0 117.5 23.5t90 63.5t61.5 94.5t36.5 115.5t11.5 127v555h129v-1057h-119v190h-4q-51 -105 -147.5 -163t-216.5 -58q-371 0 -371 402zM496 1208l215 289h159l-270 -289h-104z" />
<glyph unicode="&#xfb;" horiz-adv-x="1112" d="M127 371v686h129v-688q5 -148 69.5 -219.5t213.5 -71.5q64 0 117.5 23.5t90 63.5t61.5 94.5t36.5 115.5t11.5 127v555h129v-1057h-119v190h-4q-51 -105 -147.5 -163t-216.5 -58q-371 0 -371 402zM252 1206l233 289h142l233 -289h-133l-176 209l-180 -209h-119z" />
<glyph unicode="&#xfc;" horiz-adv-x="1112" d="M127 371v686h129v-688q5 -148 69.5 -219.5t213.5 -71.5q64 0 117.5 23.5t90 63.5t61.5 94.5t36.5 115.5t11.5 127v555h129v-1057h-119v190h-4q-51 -105 -147.5 -163t-216.5 -58q-371 0 -371 402zM305 1249v207h139v-207h-139zM668 1249v207h139v-207h-139z" />
<glyph unicode="&#xfd;" horiz-adv-x="972" d="M16 1057h138l348 -901l325 901h129l-458 -1219q-31 -73 -53 -112t-54 -68.5t-71 -39t-101 -9.5q-78 3 -98 10v109q57 -11 88 -11q28 0 50 4.5t40 18t28.5 22.5t25 35.5t19.5 38t21 47.5l45 121zM444 1208l215 289h160l-270 -289h-105z" />
<glyph unicode="&#xfe;" horiz-adv-x="1200" d="M135 -391v1853h129v-606h4q38 109 141 170t226 61q117 0 209.5 -44.5t149.5 -122.5t86.5 -177.5t29.5 -214.5t-29.5 -214.5t-86.5 -177.5t-149.5 -122.5t-209.5 -44.5q-123 0 -225 60.5t-142 171.5h-4v-592h-129zM264 528q0 -86 20.5 -163.5t62.5 -143t116 -104.5 t172 -39q71 0 130 26t98.5 69.5t66.5 102t39 121.5t12 131t-12 131.5t-39 122t-66.5 102t-98.5 69.5t-130 26q-98 0 -172 -39t-116 -105t-62.5 -143.5t-20.5 -163.5z" />
<glyph unicode="&#xff;" horiz-adv-x="972" d="M16 1057h138l348 -901l325 901h129l-458 -1219q-31 -73 -53 -112t-54 -68.5t-71 -39t-101 -9.5q-78 3 -98 10v109q57 -11 88 -11q28 0 50 4.5t40 18t28.5 22.5t25 35.5t19.5 38t21 47.5l45 121zM252 1249v207h139v-207h-139zM614 1249v207h140v-207h-140z" />
<glyph unicode="&#x152;" horiz-adv-x="2195" d="M74 731q0 154 48 292t134.5 242.5t219 166t290.5 61.5q259 0 397 -152v121h971v-119h-831v-528h753v-119h-753v-577h837v-119h-977v143q-71 -84 -178.5 -129t-218.5 -45q-158 0 -290.5 61.5t-219 166t-134.5 242.5t-48 292zM213 731q0 -130 37 -245.5t105.5 -204.5 t174.5 -141t236 -52q118 0 204.5 36.5t155.5 125.5q34 41 37 112v680q0 95 -10 136q-23 59 -90.5 105.5t-146 68.5t-150.5 22q-130 0 -236 -52t-174.5 -141t-105.5 -204.5t-37 -245.5z" />
<glyph unicode="&#x153;" horiz-adv-x="1832" d="M80 528q0 112 29.5 211.5t86 177.5t148 124t207.5 46q139 0 238 -65t139 -195h4q43 119 146.5 189.5t242.5 70.5q232 0 342.5 -148t110.5 -445h-787q0 -80 20 -152.5t58.5 -132.5t103.5 -95.5t148 -35.5q250 0 325 262h130q-43 -179 -163.5 -275t-303.5 -96 q-134 0 -240 71.5t-137 197.5h-4q-37 -132 -138 -200.5t-241 -68.5q-97 0 -176 30t-132 81.5t-89 123.5t-52 152.5t-16 171.5zM209 504q0 -83 19 -156.5t58 -135t106 -98t155 -36.5q311 0 311 459q0 442 -309 442q-77 0 -137.5 -28.5t-98 -74.5t-61.5 -109.5t-33.5 -127.5 t-9.5 -135zM987 602h658q0 102 -36.5 186t-112.5 137.5t-179 53.5q-105 0 -181.5 -53t-112.5 -137t-36 -187z" />
<glyph unicode="&#x178;" horiz-adv-x="1247" d="M-23 1462h166l482 -741l479 741h166l-578 -860v-602h-139v602zM373 1638v207h139v-207h-139zM735 1638v207h139v-207h-139z" />
<glyph unicode="&#x2c6;" horiz-adv-x="403" d="M-96 1206l233 289h142l233 -289h-133l-176 209l-180 -209h-119z" />
<glyph unicode="&#x2dc;" horiz-adv-x="403" d="M-121 1249q8 78 57.5 137.5t124.5 59.5q50 0 103 -22.5t98 -45t76 -22.5q44 0 68 26t38 72h78q-14 -80 -58.5 -137t-119.5 -57q-48 0 -102 23.5t-101.5 47t-79.5 23.5q-77 0 -102 -105h-80z" />
<glyph unicode="&#x2000;" horiz-adv-x="990" />
<glyph unicode="&#x2001;" horiz-adv-x="1980" />
<glyph unicode="&#x2002;" horiz-adv-x="990" />
<glyph unicode="&#x2003;" horiz-adv-x="1980" />
<glyph unicode="&#x2004;" horiz-adv-x="660" />
<glyph unicode="&#x2005;" horiz-adv-x="495" />
<glyph unicode="&#x2006;" horiz-adv-x="330" />
<glyph unicode="&#x2007;" horiz-adv-x="330" />
<glyph unicode="&#x2008;" horiz-adv-x="247" />
<glyph unicode="&#x2009;" horiz-adv-x="396" />
<glyph unicode="&#x200a;" horiz-adv-x="110" />
<glyph unicode="&#x2010;" horiz-adv-x="782" d="M135 504v119h512v-119h-512z" />
<glyph unicode="&#x2011;" horiz-adv-x="782" d="M135 504v119h512v-119h-512z" />
<glyph unicode="&#x2012;" horiz-adv-x="782" d="M135 504v119h512v-119h-512z" />
<glyph unicode="&#x2013;" horiz-adv-x="1048" d="M12 504v119h1024v-119h-1024z" />
<glyph unicode="&#x2014;" horiz-adv-x="2072" d="M279 504v119h1515v-119h-1515z" />
<glyph unicode="&#x2018;" horiz-adv-x="593" d="M207 965v219q0 96 47.5 175.5t134.5 102.5v-88q-49 -19 -75 -77.5t-21 -114.5h86v-217h-172z" />
<glyph unicode="&#x2019;" horiz-adv-x="593" d="M205 965v88q48 14 74.5 76t21.5 116h-86v217h172v-219q0 -96 -47.5 -175.5t-134.5 -102.5z" />
<glyph unicode="&#x201a;" horiz-adv-x="593" d="M205 -193q48 14 74.5 76.5t21.5 116.5h-86v217h172v-219q0 -96 -47.5 -176t-134.5 -103v88z" />
<glyph unicode="&#x201c;" horiz-adv-x="909" d="M207 965v219q0 96 47.5 175.5t134.5 102.5v-88q-49 -19 -75 -77.5t-21 -114.5h86v-217h-172zM522 965v219q0 62 19.5 117.5t62 100t101.5 60.5v-88q-49 -19 -75.5 -77.5t-21.5 -114.5h86v-217h-172z" />
<glyph unicode="&#x201d;" horiz-adv-x="909" d="M205 965v88q48 14 74.5 76t21.5 116h-86v217h172v-219q0 -96 -47.5 -175.5t-134.5 -102.5zM520 965v88q48 14 74.5 76t21.5 116h-86v217h172v-219q0 -96 -47.5 -175.5t-134.5 -102.5z" />
<glyph unicode="&#x201e;" horiz-adv-x="909" d="M207 -193q48 14 74.5 76.5t21.5 116.5h-86v217h172v-219q0 -96 -47.5 -176t-134.5 -103v88zM522 -193q48 14 74.5 76.5t21.5 116.5h-86v217h173v-219q0 -96 -48 -176t-135 -103v88z" />
<glyph unicode="&#x2022;" horiz-adv-x="1048" d="M160 731q0 152 106 258.5t258 106.5t259.5 -106.5t107.5 -258.5t-107.5 -259t-259.5 -107t-258 107t-106 259z" />
<glyph unicode="&#x2026;" horiz-adv-x="2072" d="M268 0v217h172v-217h-172zM950 0v217h172v-217h-172zM1632 0v217h172v-217h-172z" />
<glyph unicode="&#x202f;" horiz-adv-x="396" />
<glyph unicode="&#x2039;" horiz-adv-x="555" d="M121 500v127l272 256v-138l-192 -182l192 -182v-137z" />
<glyph unicode="&#x203a;" horiz-adv-x="555" d="M162 244v137l192 182l-192 182v138l272 -256v-127z" />
<glyph unicode="&#x205f;" horiz-adv-x="495" />
<glyph unicode="&#x20ac;" horiz-adv-x="1163" d="M43 584l39 92h90q-2 6 -2 18v23q0 14 4 80h-131l37 92h104q46 252 189 401q155 168 399 168q253 0 381 -158l-55 -120q-133 161 -328 161q-188 0 -307 -137q-103 -117 -141 -315h682l-37 -92h-658q-6 -53 -6 -88v-17q0 -10 2 -16h623l-39 -92h-578q27 -214 129 -346 q124 -154 324 -154q108 0 197 47q71 41 159 129v-158q-157 -133 -360 -133q-257 0 -414 183q-138 164 -168 432h-135z" />
<glyph unicode="&#x2122;" horiz-adv-x="2052" d="M180 1370v92h658v-92h-275v-752h-108v752h-275zM987 618v844h174l273 -684l264 684h174v-844h-109v746h-4l-299 -746h-61l-299 746h-4v-746h-109z" />
<glyph unicode="&#x25fc;" horiz-adv-x="1054" d="M0 0v1055h1055v-1055h-1055z" />
</font>
</defs>
</svg>
